<svg version="1.1" xmlns="http://www.w3.org/2000/svg" style="display: block;" viewBox="0 0 2048 2048" width="768" height="768">
<defs>
	<linearGradient id="Gradient1" gradientUnits="userSpaceOnUse" x1="1739.37" y1="1438.72" x2="1719.07" y2="1434.95">
		<stop class="stop0" offset="0" stop-opacity="1" stop-color="rgb(18,140,149)"/>
		<stop class="stop1" offset="1" stop-opacity="1" stop-color="rgb(68,176,185)"/>
	</linearGradient>
	<linearGradient id="Gradient2" gradientUnits="userSpaceOnUse" x1="1286.3" y1="1685.54" x2="1290.7" y2="1703.46">
		<stop class="stop0" offset="0" stop-opacity="1" stop-color="rgb(167,175,175)"/>
		<stop class="stop1" offset="1" stop-opacity="1" stop-color="rgb(198,189,188)"/>
	</linearGradient>
	<linearGradient id="Gradient3" gradientUnits="userSpaceOnUse" x1="671.456" y1="774.752" x2="675.596" y2="791.869">
		<stop class="stop0" offset="0" stop-opacity="1" stop-color="rgb(210,112,99)"/>
		<stop class="stop1" offset="1" stop-opacity="1" stop-color="rgb(231,141,120)"/>
	</linearGradient>
	<linearGradient id="Gradient4" gradientUnits="userSpaceOnUse" x1="1375.95" y1="965.218" x2="1391.05" y2="971.782">
		<stop class="stop0" offset="0" stop-opacity="1" stop-color="rgb(37,149,147)"/>
		<stop class="stop1" offset="1" stop-opacity="1" stop-color="rgb(66,177,171)"/>
	</linearGradient>
	<linearGradient id="Gradient5" gradientUnits="userSpaceOnUse" x1="1377.18" y1="579.561" x2="1319" y2="541.828">
		<stop class="stop0" offset="0" stop-opacity="1" stop-color="rgb(201,114,99)"/>
		<stop class="stop1" offset="1" stop-opacity="1" stop-color="rgb(237,144,122)"/>
	</linearGradient>
	<linearGradient id="Gradient6" gradientUnits="userSpaceOnUse" x1="779.035" y1="1242.65" x2="807.909" y2="1246.05">
		<stop class="stop0" offset="0" stop-opacity="1" stop-color="rgb(61,168,171)"/>
		<stop class="stop1" offset="1" stop-opacity="1" stop-color="rgb(102,198,196)"/>
	</linearGradient>
</defs>
<path transform="translate(0,0)" fill="rgb(0,109,119)" d="M -0 -0 L 2048 0 L 2048 2048 L -0 2048 L -0 -0 z"/>
<path transform="translate(0,0)" fill="rgb(237,246,249)" d="M 1372.64 1754.5 L 1375.24 1754.78 C 1375.32 1757.91 1369.23 1758.59 1367.01 1760.5 C 1365.66 1761.66 1365.05 1763.6 1363.76 1764.78 C 1360.84 1767.44 1355.27 1767.4 1351.5 1767.78 L 1348.22 1767.63 L 1348.44 1766.5 C 1357.01 1761.84 1362.9 1756.98 1372.64 1754.5 z"/>
<path transform="translate(0,0)" fill="rgb(237,246,249)" d="M 1349.41 1737.5 L 1353.5 1736.72 L 1355.37 1738.5 L 1354.88 1741.5 C 1351.73 1745.52 1346.11 1747.08 1341.5 1749.01 L 1338.5 1749.85 L 1336.3 1747.94 L 1336.5 1745.63 C 1340.35 1741.99 1344.75 1739.9 1349.41 1737.5 z"/>
<path transform="translate(0,0)" fill="rgb(237,246,249)" d="M 566.446 1771.19 C 572.286 1770.63 579.765 1770.14 585.502 1771.13 C 587.805 1771.53 587.827 1771.45 589.112 1773.5 L 587.821 1775.5 L 584.249 1775.95 L 560 1775.92 L 558.839 1774.5 C 560.64 1772.2 563.746 1771.89 566.446 1771.19 z"/>
<path transform="translate(0,0)" fill="rgb(237,246,249)" d="M 582.96 1761.08 C 586.467 1761.4 593.463 1761.23 595.921 1763.78 C 591.6 1765.5 587.97 1766.67 583.246 1766.71 C 578.05 1766.76 565.017 1765.81 561.371 1762.19 C 565.085 1759.68 577.942 1761.08 582.96 1761.08 z"/>
<path transform="translate(0,0)" fill="rgb(237,246,249)" d="M 559.09 1756.9 C 560.538 1753.93 561.293 1753.13 564.5 1752.08 C 571.657 1749.76 589.106 1751.57 595.831 1755.5 L 595.5 1757.34 L 592.484 1757.64 L 559.09 1756.9 z"/>
<path transform="translate(0,0)" fill="rgb(237,246,249)" d="M 572.783 1744.43 C 578.541 1744.29 584.816 1743.99 590.5 1745.03 C 593.515 1745.58 594.542 1746.57 596.338 1748.92 L 595.823 1750.5 L 589.915 1749.98 C 582.694 1750.07 573.871 1751.12 566.832 1749.83 C 564.617 1749.43 564.23 1749.33 562.861 1747.5 C 566.086 1744.7 568.705 1744.96 572.783 1744.43 z"/>
<path transform="translate(0,0)" fill="rgb(237,246,249)" d="M 1351.67 1747.5 L 1353.06 1747.72 C 1352.95 1749.32 1351.63 1749.91 1350.5 1750.97 L 1351.13 1752.5 C 1353.04 1751.98 1352.66 1752.3 1353.96 1751.35 C 1355.99 1749.87 1357.76 1748.52 1360 1747.31 C 1363.65 1747.45 1364.42 1747.05 1367.28 1749.5 C 1366.02 1752.3 1361.5 1753.22 1358.61 1754.36 L 1341.12 1764 C 1343.47 1757.53 1345.25 1751.01 1351.67 1747.5 z"/>
<path transform="translate(0,0)" fill="rgb(237,246,249)" d="M 557.035 1783.51 C 563.293 1780.69 567.394 1779.02 574.383 1779.56 C 575.625 1779.66 576.678 1779.5 577.906 1779.35 C 580.902 1778.99 583.568 1779.53 586.5 1780.1 L 588.861 1782 L 588.5 1784.06 C 584.372 1786.25 577.097 1785.33 572.5 1784.69 L 571.072 1785.57 L 575.923 1786.24 L 576.5 1787.79 C 571.366 1789.53 563.15 1789.24 558.027 1787.55 L 555.345 1785.89 L 557.035 1783.51 z"/>
<path transform="translate(0,0)" fill="rgb(237,246,249)" d="M 1372.57 1765.03 C 1375.46 1765 1377.66 1764.45 1380.18 1765.99 C 1380.04 1766.57 1380.17 1767.29 1379.77 1767.72 C 1378.93 1768.61 1369.79 1770.67 1367.5 1772.17 L 1368.03 1773.5 C 1368.97 1773.19 1369.41 1773.01 1370.5 1772.91 C 1375 1772.52 1387.47 1772.11 1390.82 1774.5 C 1388.3 1777.75 1381.2 1776.27 1377.08 1778.2 L 1377.11 1779.5 L 1385.61 1779.49 C 1389.35 1779.96 1390.61 1779.87 1393.7 1782.19 L 1392.85 1783.7 C 1387.04 1783.83 1381.6 1784.1 1375.89 1785.27 C 1374.1 1785.64 1374.12 1785.42 1372.5 1784.79 C 1372.06 1782.45 1372.93 1780.98 1373.88 1778.9 L 1374.3 1778 C 1371.98 1775.89 1370.06 1776.15 1367 1775.75 C 1365.13 1776.93 1363.64 1777.62 1361.5 1778.2 L 1360.33 1777 L 1362.79 1770.5 C 1364.54 1767.19 1369.22 1766.33 1372.57 1765.03 z"/>
<path transform="translate(0,0)" fill="rgb(16,56,75)" d="M 1668.67 258.533 C 1663.41 238.517 1661.59 216.757 1658.51 196.275 C 1657.36 188.611 1653.26 173.128 1656.5 166.334 L 1662.53 165.736 C 1668.79 195.393 1673.43 224.79 1676.47 254.949 C 1677.95 269.633 1679.7 284.735 1678.93 299.5 L 1677 300.971 C 1673.68 297.408 1669.97 266.07 1668.67 258.533 z"/>
<path transform="translate(0,0)" fill="url(#Gradient1)" d="M 1722.9 1476.56 L 1723.97 1402.13 C 1732.28 1400.11 1740.84 1398.13 1748.75 1394.86 L 1748.51 1393.5 C 1750.73 1393 1752.61 1392.2 1754.65 1391.21 L 1755.99 1390.54 L 1757.2 1391.61 L 1750.02 1395.52 L 1727.18 1479.47 L 1723.26 1477.73 L 1722.9 1476.56 z"/>
<path transform="translate(0,0)" fill="rgb(16,56,75)" d="M 349.12 1078.99 C 362.423 1079.75 378.86 1081.94 391.997 1079.63 L 396.501 1080.58 L 397.504 1082.77 C 396.618 1091.45 396.878 1103.67 389.5 1109.64 C 384.781 1113.45 374.114 1112.23 368.5 1111.42 L 352.124 1108.77 L 349.518 1108.11 C 346.822 1100.69 348.937 1087.11 349.12 1078.99 z"/>
<path transform="translate(0,0)" fill="rgb(16,56,75)" d="M 1377.09 293.44 C 1380.47 293.206 1381.76 293.843 1384.92 294.819 L 1385.96 295.003 L 1386.05 299.471 L 1384.9 433.401 L 1384.91 471.849 C 1384.95 479.355 1383.96 488.182 1386.72 495.224 L 1376.42 493.4 L 1377.09 293.44 z"/>
<path transform="translate(0,0)" fill="rgb(237,246,249)" d="M 563.324 1660.66 C 572.062 1665.33 580.34 1676.37 587.189 1683.72 C 590.797 1687.59 595.155 1691.49 596.813 1696.65 L 597.402 1698.84 L 597.757 1700.14 L 597.938 1700.93 C 591.312 1710.55 585.637 1719.38 576.297 1726.67 L 568.459 1722.89 C 558.678 1716.94 551.885 1705.39 549.47 1694.34 C 549.032 1692.34 548.124 1689.3 548.189 1687.29 C 548.4 1680.75 559.509 1666.61 563.324 1660.66 z"/>
<path transform="translate(0,0)" fill="rgb(131,197,190)" d="M 1673.05 372.133 L 1671.81 373.911 L 1670.5 374.072 C 1653.18 358.482 1633.62 345.372 1614.74 331.767 C 1601.53 322.244 1588.83 313.569 1578.22 301.069 L 1604.73 300.629 C 1627.75 301.466 1653.24 304.153 1676.16 301.455 L 1673.05 372.133 z"/>
<path transform="translate(0,0)" fill="rgb(244,177,146)" d="M 587.818 1605.17 C 593.396 1597.55 596.427 1587.27 600.155 1578.6 C 601.338 1575.85 602.692 1571.64 605.5 1570.37 L 606.965 1575.06 L 610.477 1602.31 C 611.037 1605.93 611.226 1611.09 613.04 1614.22 C 613.47 1616.65 612.992 1616.78 615.06 1618.37 C 617.464 1622.84 623.312 1625.37 627.511 1628.27 L 660.952 1651.6 C 646.622 1660.63 634.617 1673.02 621.512 1683.68 C 613.97 1689.81 605.319 1694.71 597.938 1700.93 L 597.757 1700.14 L 597.402 1698.84 L 596.813 1696.65 C 595.155 1691.49 590.797 1687.59 587.189 1683.72 C 580.34 1676.37 572.062 1665.33 563.324 1660.66 C 565.213 1653.7 569.297 1646.44 572.264 1639.77 L 587.818 1605.17 z"/>
<path transform="translate(0,0)" fill="rgb(237,246,249)" d="M 1385.96 295.003 L 1459.9 295.855 C 1478.99 295.95 1500.72 294.104 1519.31 298.329 L 1483.97 326.699 C 1476.46 332.809 1468.46 338.64 1461.6 345.486 C 1475.83 348.398 1490.85 346.971 1505.32 348.139 L 1513.07 381.3 C 1499.11 374.102 1483.94 369.486 1469.34 363.776 C 1451.46 356.782 1434.59 348.191 1417.95 338.623 C 1410.61 334.399 1402.83 330.273 1396 325.268 C 1394.49 324.158 1388.32 319.943 1387.65 318.464 C 1387.28 317.642 1387.47 313.82 1387.42 312.699 C 1387.2 308.246 1386.66 303.882 1386.05 299.471 L 1385.96 295.003 z"/>
<path transform="translate(0,0)" fill="rgb(18,62,78)" d="M 400.837 976.977 L 403.678 978.5 C 403.779 982.07 403.57 985.686 405.111 988.985 C 413.164 991.355 425.115 989.937 433.713 989.955 L 495.015 989.821 C 489.642 1000.47 484.389 1010.89 488.193 1023.09 L 491.524 1030.91 C 494.059 1033.5 496.676 1036.84 500.135 1038.07 C 501.133 1039.65 501.943 1041.02 502.672 1042.76 C 502.987 1047.55 502.794 1050.08 501.329 1054.52 L 500.766 1056.77 C 492.91 1058.24 485.031 1057.67 477.085 1057.45 L 439.264 1055.85 C 426.721 1053.79 412.721 1054.16 399.974 1053.98 C 397.861 1054.91 396.102 1055.17 393.813 1055.41 L 392.499 1052.23 L 397.17 1009.62 L 398.93 988.141 C 399.219 984.388 399.093 980.377 400.837 976.977 z"/>
<path transform="translate(0,0)" fill="rgb(0,109,119)" d="M 399.974 1053.98 C 403.518 1050.45 404.509 1032.98 405.409 1027.04 L 444.016 1029.16 L 473.762 1029.71 C 478.001 1029.79 483.505 1029.23 487.405 1030.77 C 489.649 1031.66 489.321 1031.45 491.524 1030.91 C 494.059 1033.5 496.676 1036.84 500.135 1038.07 C 501.133 1039.65 501.943 1041.02 502.672 1042.76 C 502.987 1047.55 502.794 1050.08 501.329 1054.52 L 500.766 1056.77 C 492.91 1058.24 485.031 1057.67 477.085 1057.45 L 439.264 1055.85 C 426.721 1053.79 412.721 1054.16 399.974 1053.98 z"/>
<path transform="translate(0,0)" fill="rgb(18,67,84)" d="M 1841.79 1003.14 L 1934.47 1003.21 L 1935.51 1003.35 C 1949.61 1005.15 1971.75 999.241 1981.73 1011.1 C 1986.12 1016.32 1989.53 1026.01 1988.67 1032.86 C 1987.98 1038.41 1985.56 1045.16 1980.72 1048.46 C 1974.59 1052.63 1964.83 1051.79 1957.75 1051.67 L 1932 1050.98 L 1876.06 1050.86 C 1867.09 1049.51 1856.88 1050.28 1847.75 1050.12 C 1846.15 1039.76 1845.99 1029.09 1845.37 1018.63 C 1845.06 1013.4 1845.24 1007.22 1841.79 1003.14 z"/>
<path transform="translate(0,0)" fill="rgb(27,144,156)" d="M 834.078 287.068 L 844.466 287.189 L 845.433 287.341 C 853.597 288.502 862.266 287.997 870.523 288.018 L 912.965 287.909 C 916.927 307.759 927.7 326.486 938.946 343.118 C 944.754 351.709 951.545 359.691 954.526 369.689 L 954.95 370.866 L 833.313 363.337 C 834.56 347.228 834.235 330.582 833.954 314.421 C 833.819 306.658 831.639 294.301 834.078 287.068 z"/>
<path transform="translate(0,0)" fill="rgb(237,246,249)" d="M 1255.28 1637.09 C 1261.58 1636.49 1267.79 1638.2 1273.96 1639.31 L 1299.28 1642.9 L 1324.71 1644.35 C 1328.86 1644.5 1333.91 1644.2 1337.76 1645.78 L 1322.5 1722.86 C 1320.43 1724 1318.79 1723.75 1316.5 1723.68 C 1312.55 1725.87 1309.59 1729.62 1306.66 1732.99 C 1294.42 1747.06 1282.47 1769.86 1260.23 1763.5 C 1253.76 1761.65 1249.23 1756.37 1246.35 1750.5 C 1241.05 1739.69 1249.26 1721.22 1252.09 1710 C 1253.8 1703.19 1254.95 1696.3 1256.07 1689.36 L 1255.62 1687.71 C 1257.83 1672.2 1256.08 1653.86 1254.98 1638.15 L 1255.28 1637.09 z"/>
<path transform="translate(0,0)" fill="url(#Gradient2)" d="M 1255.62 1687.71 L 1296.3 1694.29 C 1302.96 1695.22 1317.22 1695.41 1322.47 1699 C 1315.66 1704.09 1295.09 1700.01 1286.76 1698.78 C 1275.78 1697.17 1265.53 1695.5 1256.07 1689.36 L 1255.62 1687.71 z"/>
<path transform="translate(0,0)" fill="rgb(131,197,190)" d="M 1058.18 189.876 L 842.994 188.072 L 840.692 108.636 C 846.907 116.364 853.075 124.101 860.5 130.727 C 886.285 153.74 917.069 160.962 950.534 164.603 L 1243.28 179.974 L 1243.18 196 L 1242.37 196.648 C 1241.41 197.43 1241.73 197.07 1241.21 197.771 C 1220.98 193.908 1199.33 193.31 1178.77 192.23 L 1058.18 189.876 z"/>
<path transform="translate(0,0)" fill="rgb(237,246,249)" d="M 1887.52 1231.81 L 1886.52 1231.81 L 1844.61 1098.7 C 1839.1 1082.76 1835.26 1066.04 1828.43 1050.63 L 1876.06 1050.86 L 1932 1050.98 L 1887.52 1231.81 z"/>
<path transform="translate(0,0)" fill="rgb(169,224,218)" d="M 833.313 363.337 L 954.95 370.866 L 956.189 372.106 C 952.24 378.723 949.205 384.783 947.943 392.5 L 947.665 394.125 C 945.171 410.14 947.43 431.815 954.461 446.59 C 957.154 452.251 961.338 457.657 963.317 463.538 C 959.849 464.293 954.595 461.595 951.056 460.644 C 944.258 458.817 937.422 457.421 930.491 456.209 L 834.699 443.151 C 831.908 437.045 833.346 425.234 833.311 418.485 L 833.313 363.337 z"/>
<path transform="translate(0,0)" fill="rgb(16,56,75)" d="M 251.074 1029.19 L 254.231 1033.33 C 253.323 1045.16 250.408 1056.98 248.502 1068.69 C 243.964 1096.58 239.552 1126.58 240.077 1154.86 C 256.296 1157.61 271.31 1157.06 287.587 1155.52 L 281.991 1193 C 280.703 1200.17 279.75 1207.44 275.588 1213.58 C 268.287 1215.36 259.82 1214.16 252.341 1213.84 L 215.219 1212.44 C 209.689 1212.23 199.029 1213.3 195.154 1208.78 C 192.92 1206.17 191.771 1202.79 191.239 1199.44 C 189.494 1188.45 190.846 1175.54 190.918 1164.39 L 196.201 1044.32 L 198.022 1044.99 C 199.093 1047.4 200.014 1050.06 201.553 1052.2 C 203.639 1054.29 205.676 1056.07 208.533 1057.04 C 216.841 1059.85 230.408 1058.46 238.014 1054.39 C 242.256 1052.12 246.389 1047.12 247.79 1042.53 C 249.159 1038.05 250.237 1033.81 251.074 1029.19 z"/>
<path transform="translate(0,0)" fill="rgb(244,177,146)" d="M 1245.93 1516.99 C 1259.89 1517.59 1274.48 1521.21 1288.37 1520.62 C 1296.79 1520.27 1305.26 1517.84 1313.58 1516.53 C 1330.59 1513.85 1347.87 1513.41 1364.99 1515.06 C 1359.33 1531.4 1357.3 1549.03 1354.24 1566.03 L 1337.76 1645.78 C 1333.91 1644.2 1328.86 1644.5 1324.71 1644.35 L 1299.28 1642.9 L 1273.96 1639.31 C 1267.79 1638.2 1261.58 1636.49 1255.28 1637.09 C 1252.77 1630.95 1253.44 1619.95 1252.89 1613.04 L 1247.86 1544.02 C 1247.28 1535.8 1244.42 1524.85 1245.93 1516.99 z"/>
<path transform="translate(0,0)" fill="rgb(131,197,190)" d="M 1208.56 1044.94 L 1231.96 1045.66 L 1317.89 1046.22 L 1377.21 1046.9 C 1370.4 1061.58 1364.99 1076.93 1357.65 1091.33 C 1348.8 1108.71 1336.65 1125.35 1322.75 1139.03 C 1316.48 1145.21 1309.6 1151.32 1301.21 1154.42 C 1295.97 1156.36 1290.41 1157.26 1284.88 1157.81 C 1268.83 1143.24 1249.1 1133.45 1231.79 1120.76 L 1209.88 1107.68 C 1210.34 1086.82 1211.21 1065.69 1208.56 1044.94 z"/>
<path transform="translate(0,0)" fill="rgb(237,246,249)" d="M 1208.56 1044.94 L 1231.96 1045.66 L 1231.79 1120.76 L 1209.88 1107.68 C 1210.34 1086.82 1211.21 1065.69 1208.56 1044.94 z"/>
<path transform="translate(0,0)" fill="rgb(18,62,78)" d="M 956.189 372.106 C 963.296 366.536 969.888 360.344 977.462 355.396 C 1001.79 339.502 1031.98 333.041 1060.6 336.522 C 1074 338.151 1087.74 341.443 1101.28 340.739 C 1107.41 340.42 1112.97 339.12 1118.92 337.703 C 1121.32 337.133 1125.26 335.691 1127.71 336.191 C 1133.11 337.295 1138.38 342.231 1141.65 346.46 C 1147.77 354.381 1149.31 365.393 1147.91 375.143 C 1146.43 385.436 1141.5 393.899 1133.19 400.097 C 1125.26 406.012 1115.94 409.148 1106.72 412.39 L 1105.77 412.27 C 1086.77 409.746 1039.84 395.611 1023.64 407.47 C 1018.89 410.943 1015.87 417.06 1015.44 422.892 C 1014.97 429.365 1020.23 438.638 1023.18 444.324 C 1024.23 446.344 1026 448.935 1026.21 451.227 C 1026.42 453.441 1025.36 454.507 1023.95 456.046 C 1021.26 458.963 1018.36 460.101 1014.5 460.418 C 1006.27 451.566 1005.5 438.993 990.476 438.041 C 984.172 437.642 977.113 438.635 972.476 443.252 C 966.625 449.078 965.663 456.941 964.33 464.646 L 963.317 463.538 C 961.338 457.657 957.154 452.251 954.461 446.59 C 947.43 431.815 945.171 410.14 947.665 394.125 L 947.943 392.5 C 949.205 384.783 952.24 378.723 956.189 372.106 z"/>
<path transform="translate(0,0)" fill="rgb(16,56,75)" d="M 1246.31 291.595 C 1249.35 291.141 1250.06 290.752 1252.89 292.142 L 1252.06 497.775 L 1251.57 513.436 C 1262.25 513.538 1274.11 512.696 1284.65 513.966 C 1285.91 507.305 1286.72 503.234 1291.73 498.441 C 1295.28 506.842 1292.1 514.899 1291.68 523.621 L 1295.34 523.961 L 1296.03 533.604 C 1303.94 536.678 1313.32 538.317 1320.03 543.635 C 1317.75 545.673 1315.74 547.25 1312.86 548.385 C 1320.2 559.926 1319.9 578.441 1319 591.727 C 1315.14 595.884 1311.78 597.783 1306.03 598.048 C 1296.42 598.491 1285.63 596.71 1278.32 589.959 C 1274.25 586.196 1272.19 581.546 1272.08 576 C 1271.97 570.059 1274.38 563.774 1277.78 559 L 1276.93 551.5 C 1272.44 548.225 1257.65 548.884 1251.7 548.318 C 1251.73 560.122 1254 607.373 1249.7 615.184 L 1244.41 607.74 C 1215.67 579.434 1170.3 574.532 1131.7 572.729 C 1119.09 572.14 1106.25 572.864 1093.76 570.799 L 1092.07 570.507 C 1087.92 565.905 1081.36 562.532 1076.06 559.404 C 1079.86 552.749 1084.39 548.665 1090.31 543.999 C 1085.51 541.292 1079.33 540.803 1073.93 540.046 L 1093.5 535.986 C 1095.89 533.177 1095.7 532.073 1096.15 528.5 C 1092.43 523.942 1083.37 525.681 1078.31 520.892 L 1079 519.22 C 1080.17 519.292 1081.4 519.055 1082.5 519.437 C 1085.52 520.482 1086.33 523.987 1089.99 523.5 C 1091.19 521.257 1092.55 518.248 1094.47 516.552 C 1098.74 512.791 1109.93 512.755 1115.6 510.527 L 1116.46 510.174 C 1121.48 509.157 1128.68 510.145 1133.91 510.265 L 1177.99 511.843 L 1245.96 513.054 L 1247.13 292.99 L 1246.31 291.595 z"/>
<path transform="translate(0,0)" fill="rgb(250,181,156)" d="M 1291.68 523.621 L 1295.34 523.961 L 1296.03 533.604 C 1296.02 536.821 1295.44 540.362 1297.04 543.163 L 1296.95 544.873 C 1296.47 547.197 1293.79 548.587 1292 549.748 L 1290.5 548.804 L 1289.77 538.582 L 1291.68 523.621 z"/>
<path transform="translate(0,0)" fill="rgb(230,164,139)" d="M 1296.03 533.604 C 1303.94 536.678 1313.32 538.317 1320.03 543.635 C 1317.75 545.673 1315.74 547.25 1312.86 548.385 C 1309.16 545.619 1301.63 542.913 1297.04 543.163 C 1295.44 540.362 1296.02 536.821 1296.03 533.604 z"/>
<path transform="translate(0,0)" fill="rgb(244,177,146)" d="M 1284.65 513.966 C 1285.91 507.305 1286.72 503.234 1291.73 498.441 C 1295.28 506.842 1292.1 514.899 1291.68 523.621 L 1289.77 538.582 L 1288.26 538.035 L 1287.68 542.936 L 1286.5 542.976 C 1286.31 540.734 1286.07 539.4 1286.93 537.251 C 1288.55 533.231 1285.21 518.894 1284.65 513.966 z"/>
<path transform="translate(0,0)" fill="rgb(14,44,62)" d="M 1246.31 291.595 C 1249.35 291.141 1250.06 290.752 1252.89 292.142 L 1252.06 497.775 C 1251.5 499.469 1251.04 501.014 1250.76 502.787 L 1250.01 507.005 C 1249.41 509.087 1249.37 507.9 1249.72 510.093 L 1250 511.5 L 1248.5 511.51 L 1248.23 361.548 L 1248.21 318.376 C 1248.19 310.286 1249.09 300.818 1247.13 292.99 L 1246.31 291.595 z"/>
<path transform="translate(0,0)" fill="rgb(27,144,156)" d="M 1090.31 543.999 L 1213.13 546.236 L 1235.78 546.881 C 1238.41 546.953 1242.59 546.488 1244.81 547.678 L 1244.97 587.642 C 1244.93 594.2 1245.38 601.254 1244.41 607.74 C 1215.67 579.434 1170.3 574.532 1131.7 572.729 C 1119.09 572.14 1106.25 572.864 1093.76 570.799 L 1092.07 570.507 C 1087.92 565.905 1081.36 562.532 1076.06 559.404 C 1079.86 552.749 1084.39 548.665 1090.31 543.999 z"/>
<path transform="translate(0,0)" fill="rgb(18,62,78)" d="M 1657.13 1801.81 L 1658.62 1459.54 C 1659.97 1459.31 1659.42 1459.24 1660.72 1459.69 C 1680.91 1466.75 1703.15 1468.49 1722.9 1476.56 L 1723.26 1477.73 L 1720.93 1806.18 L 1657.13 1801.81 z"/>
<path transform="translate(0,0)" fill="rgb(16,56,75)" d="M 834.699 443.151 L 930.491 456.209 C 937.422 457.421 944.258 458.817 951.056 460.644 C 954.595 461.595 959.849 464.293 963.317 463.538 L 964.33 464.646 C 963.931 470.039 963.878 473.893 965.653 479.119 L 966.236 480.881 C 967.417 484.36 968.667 487.083 970.765 490.091 C 972.963 491.571 974.685 492.651 976.069 495 C 976.388 502.21 974.491 508.697 972.269 515.452 L 970.684 514.9 L 968.968 519.067 C 964.709 521.356 960.633 523.435 956 524.905 C 946.474 527.926 931.668 529.248 926.874 539.005 C 912.282 544.692 897.224 547.95 882.003 551.47 L 836.349 560.424 C 787.122 565.891 736.396 567.481 697.55 602.595 L 694.975 603.048 C 690.626 607.408 683.142 613.194 680.93 619 L 671.888 622.752 L 668.741 628.249 C 666.402 618.174 667.651 606.619 668.021 596.315 L 667.859 595.842 C 667.002 583.689 667.177 480.596 669.048 477.159 C 676.858 474.984 688.962 477.616 697.228 478.01 L 834.155 486.052 L 834.699 443.151 z"/>
<path transform="translate(0,0)" fill="rgb(131,197,190)" d="M 844.243 510.721 L 926 513.597 C 940.118 513.873 956.938 512.226 970.684 514.9 L 968.968 519.067 C 964.709 521.356 960.633 523.435 956 524.905 C 946.474 527.926 931.668 529.248 926.874 539.005 C 912.282 544.692 897.224 547.95 882.003 551.47 L 836.349 560.424 L 835.804 524.287 C 835.762 520.498 834.86 514.177 836.5 510.823 L 844.243 510.721 z"/>
<path transform="translate(0,0)" fill="rgb(27,144,156)" d="M 834.699 443.151 L 930.491 456.209 C 937.422 457.421 944.258 458.817 951.056 460.644 C 954.595 461.595 959.849 464.293 963.317 463.538 L 964.33 464.646 C 963.931 470.039 963.878 473.893 965.653 479.119 L 966.236 480.881 C 967.417 484.36 968.667 487.083 970.765 490.091 L 834.155 486.052 L 834.699 443.151 z"/>
<path transform="translate(0,0)" fill="rgb(0,109,119)" d="M 674.812 615.925 C 673.375 611.157 673.738 605.569 673.621 600.602 L 673.821 565.171 L 674.012 500.861 L 844.243 510.721 L 836.5 510.823 C 834.86 514.177 835.762 520.498 835.804 524.287 L 836.349 560.424 C 787.122 565.891 736.396 567.481 697.55 602.595 L 694.975 603.048 C 690.626 607.408 683.142 613.194 680.93 619 L 671.888 622.752 L 673.985 617.309 L 674.812 615.925 z"/>
<path transform="translate(0,0)" fill="rgb(234,201,190)" d="M 674.812 615.925 C 680.235 608.844 686.808 606.037 694.975 603.048 C 690.626 607.408 683.142 613.194 680.93 619 L 671.888 622.752 L 673.985 617.309 L 674.812 615.925 z"/>
<path transform="translate(0,0)" fill="rgb(244,177,146)" d="M 964.33 464.646 C 965.663 456.941 966.625 449.078 972.476 443.252 C 977.113 438.635 984.172 437.642 990.476 438.041 C 1005.5 438.993 1006.27 451.566 1014.5 460.418 C 1018.36 460.101 1021.26 458.963 1023.95 456.046 C 1025.36 454.507 1026.42 453.441 1026.21 451.227 C 1026 448.935 1024.23 446.344 1023.18 444.324 C 1020.23 438.638 1014.97 429.365 1015.44 422.892 C 1015.87 417.06 1018.89 410.943 1023.64 407.47 C 1039.84 395.611 1086.77 409.746 1105.77 412.27 L 1106.72 412.39 C 1110.21 415.487 1113.64 418.335 1116.3 422.209 C 1115.12 428.831 1113.82 435.383 1111.64 441.763 C 1108.46 451.078 1103.36 462.723 1105.02 472.821 C 1105.65 476.707 1108.03 481.036 1109.5 484.7 C 1112.79 492.907 1116.13 501.23 1116.46 510.174 L 1115.6 510.527 C 1109.93 512.755 1098.74 512.791 1094.47 516.552 C 1092.55 518.248 1091.19 521.257 1089.99 523.5 C 1086.33 523.987 1085.52 520.482 1082.5 519.437 C 1081.4 519.055 1080.17 519.292 1079 519.22 L 1078.31 520.892 C 1083.37 525.681 1092.43 523.942 1096.15 528.5 C 1095.7 532.073 1095.89 533.177 1093.5 535.986 L 1073.93 540.046 C 1079.33 540.803 1085.51 541.292 1090.31 543.999 C 1084.39 548.665 1079.86 552.749 1076.06 559.404 C 1074.77 560.709 1071.52 563.283 1070.73 564.788 C 1068.83 568.4 1072.87 596.368 1073.32 602.17 C 1074.14 612.582 1074.73 624.031 1073.7 634.418 C 1073.26 638.82 1071.99 642.178 1068.43 644.964 C 1055.07 655.427 1033.07 656.846 1016.94 655.005 C 965.98 649.189 950.869 606.185 937.21 564 C 934.963 557.061 932.762 545.638 927.868 540.053 L 926.874 539.005 C 931.668 529.248 946.474 527.926 956 524.905 C 960.633 523.435 964.709 521.356 968.968 519.067 L 970.684 514.9 L 972.269 515.452 C 974.491 508.697 976.388 502.21 976.069 495 C 974.685 492.651 972.963 491.571 970.765 490.091 C 968.667 487.083 967.417 484.36 966.236 480.881 L 965.653 479.119 C 963.878 473.893 963.931 470.039 964.33 464.646 z"/>
<path transform="translate(0,0)" fill="rgb(63,58,62)" d="M 1060.11 454.967 C 1061.85 453.18 1061.72 452.936 1064.21 452.954 C 1068.93 452.989 1077.4 454.853 1080.82 458.27 C 1081.9 459.354 1081.83 459.364 1082.46 460.5 C 1081.4 462.651 1081.01 462.814 1078.94 464.091 C 1077.52 463.772 1077.24 463.443 1076.17 462.497 C 1070.82 457.038 1067.66 455.934 1060.11 454.967 z"/>
<path transform="translate(0,0)" fill="rgb(230,164,139)" d="M 1060.11 454.967 C 1067.66 455.934 1070.82 457.038 1076.17 462.497 C 1072.76 465.243 1070.83 465.103 1066.43 464.579 L 1054.28 463.072 C 1055.94 460.165 1058.06 457.602 1060.11 454.967 z"/>
<path transform="translate(0,0)" fill="rgb(178,73,70)" d="M 997.023 484.036 L 981.955 484.089 C 981.941 477.105 981.767 470.738 983.813 464 L 985.479 458.571 C 987.095 463.288 987.331 469.198 987.612 474.184 C 987.646 474.789 987.663 478.739 987.843 479 C 988.206 479.526 988.908 479.723 989.5 479.963 L 991.89 480.225 C 994.026 480.41 995.186 480.738 996.999 481.971 L 997.971 483.83 L 997.023 484.036 z"/>
<path transform="translate(0,0)" fill="rgb(152,104,101)" d="M 1076.17 462.497 C 1077.24 463.443 1077.52 463.772 1078.94 464.091 L 1075.21 466.203 C 1073.06 470.749 1069.61 474.387 1066.39 478.203 C 1060.4 474.814 1057.19 471.359 1053.56 465.5 L 1054.28 463.072 L 1066.43 464.579 C 1070.83 465.103 1072.76 465.243 1076.17 462.497 z"/>
<path transform="translate(0,0)" fill="rgb(63,58,62)" d="M 1050.57 439.5 C 1057.68 437.86 1067.1 439.412 1074.5 439.345 C 1080.35 439.292 1091.44 437.243 1096.66 439.257 C 1096.56 441.817 1095.07 443.158 1093.5 445.003 C 1092.08 445.59 1090.65 445.968 1089.13 446.225 C 1079.87 447.786 1070.52 445.638 1061.35 444.378 C 1057.62 443.865 1052.49 443.797 1049.4 441.61 L 1050.57 439.5 z"/>
<path transform="translate(0,0)" fill="rgb(205,80,67)" d="M 972.269 515.452 C 972.839 544.67 980.503 571.039 991.5 597.95 C 994.753 605.911 998.323 615.381 1004.18 621.759 C 1008.61 623.522 1016.48 623.575 1020.9 621.684 C 1030.28 617.677 1034.4 607.527 1038.42 598.938 C 1039.86 595.85 1040.83 592.56 1043.68 590.5 C 1044.4 596.088 1035.85 612.842 1032.13 617.887 C 1027.65 623.957 1023.12 624.928 1015.99 625.774 C 1011.81 626.269 1004.96 626.864 1001.5 624.022 C 987.709 612.693 975.084 569.512 972.176 551.196 C 970.481 540.521 970.386 529.712 968.968 519.067 L 970.684 514.9 L 972.269 515.452 z"/>
<path transform="translate(0,0)" fill="rgb(205,80,67)" d="M 997.023 484.036 L 997.971 483.83 C 999.736 489.675 999.032 496.633 999.737 502.754 C 1001.26 515.973 1010.05 531.796 1018.77 541.738 C 1032.27 557.136 1049.06 563.635 1069.08 565.041 C 1062.27 573.724 1053.58 580.855 1045.45 588.267 C 1026.99 580.723 1013.49 561.284 1004.51 544.043 C 998.628 532.745 992.333 519.223 995.788 506.153 C 997.267 500.559 999.744 489.161 997.023 484.036 z"/>
<path transform="translate(0,0)" fill="rgb(18,67,84)" d="M 205.734 954.212 L 221.925 839 C 222.901 833.566 224.389 828.111 227.656 823.544 C 231.79 817.767 238.168 815.224 245 814.387 C 253.631 813.329 268.09 813.669 274.919 819.398 C 278.645 822.524 279.641 826.828 279.995 831.452 C 280.904 843.338 280.495 857.13 278.358 868.802 L 277.954 876.5 C 280.559 878.656 284.684 877.769 288.036 877.767 C 298.049 877.76 308.277 877.431 318.268 878.142 C 321.926 878.402 325.866 878.292 326.691 882.5 C 327.656 887.417 326.584 894.19 326.17 899.147 C 324.63 917.553 321.692 935.462 318.636 953.662 C 317.038 963.173 316.296 974.794 312.636 983.692 C 321.938 984.962 332.399 984.041 341.841 984.059 C 342.336 980.345 342.204 976.94 344.5 973.903 L 354.597 974.112 L 354.015 988.701 L 352.05 1049.5 C 350.69 1050.09 349.703 1050.4 348.216 1050.73 L 302.096 1049.1 L 287.587 1155.52 C 271.31 1157.06 256.296 1157.61 240.077 1154.86 C 239.552 1126.58 243.964 1096.58 248.502 1068.69 C 250.408 1056.98 253.323 1045.16 254.231 1033.33 L 251.074 1029.19 C 250.237 1033.81 249.159 1038.05 247.79 1042.53 C 246.389 1047.12 242.256 1052.12 238.014 1054.39 C 230.408 1058.46 216.841 1059.85 208.533 1057.04 C 205.676 1056.07 203.639 1054.29 201.553 1052.2 C 200.014 1050.06 199.093 1047.4 198.022 1044.99 L 196.201 1044.32 C 196.069 1042.18 196.732 1040.4 194.5 1039.2 C 192.886 1038.33 185.519 1038.76 183.37 1038.65 L 140.969 1036.41 C 130.423 1036 117.675 1036.84 107.5 1034.05 C 103.414 1032.94 99.5492 1030.09 96.7012 1027.01 C 91.25 1021.13 87.3023 1013.17 87.6938 1005.02 C 88.082 996.942 91.6615 989.207 97.9904 984.051 C 101.695 981.034 107.675 981.576 112.174 981.606 L 150.538 982.589 C 165.93 982.937 181.658 982.266 196.966 983.848 L 198.613 984.027 L 205.734 954.212 z"/>
<path transform="translate(0,0)" fill="rgb(14,44,62)" d="M 274.207 877.657 L 276.454 878.542 C 276.324 882.766 276.347 886.86 275.49 891 L 274.002 902.435 L 254.231 1033.33 L 251.074 1029.19 C 253.263 1020.36 253.824 1011.02 254.777 1002 L 259.387 950.872 C 248.989 949.406 237.745 948.129 228 944.045 C 225.1 942.83 223.267 942.387 222.017 939.5 L 223.5 938.156 C 229.321 940.115 235.398 942.007 241.5 942.833 C 247.5 943.646 254.113 943.437 258.979 939.413 C 263.002 936.086 264.444 931.592 265.898 926.772 C 270.678 910.922 272.025 893.999 274.207 877.657 z"/>
<path transform="translate(0,0)" fill="rgb(0,109,119)" d="M 307.062 1032.16 C 309.015 1022.14 310.021 1011.87 311.265 1001.74 C 311.829 997.151 311.939 991.77 313.566 987.453 L 342.898 988.916 L 340.612 1041.05 L 327.214 1039.66 C 326.328 1039.02 323.474 1038.79 322.268 1038.57 C 317.302 1037.65 312.383 1036.86 307.5 1035.54 L 307.062 1032.16 z"/>
<path transform="translate(0,0)" fill="rgb(131,197,190)" d="M 1757.2 1391.61 L 1758.16 1391.22 C 1768.4 1386.83 1778.12 1380.07 1787.26 1373.72 C 1815.7 1354 1843.9 1328.77 1863.86 1300.36 C 1873.14 1287.15 1879.87 1272.49 1887.5 1258.32 C 1887.88 1271.6 1890.57 1283.54 1893.2 1296.49 L 1905.89 1354.33 C 1915.86 1400.07 1923.12 1446.54 1927.09 1493.2 C 1929.26 1518.67 1931.14 1545.04 1928.32 1570.51 C 1926.35 1588.28 1921.56 1605.21 1914.49 1621.6 L 1883 1595.91 L 1833.5 1562.45 L 1776.16 1520.44 L 1747.45 1497.29 L 1732.91 1484.51 C 1731.31 1483.07 1729.04 1480.39 1727.18 1479.47 L 1750.02 1395.52 L 1757.2 1391.61 z"/>
<path transform="translate(0,0)" fill="rgb(0,109,119)" d="M 1816.03 1366.04 C 1819.04 1365.7 1822.51 1365.55 1825.5 1366.01 C 1829.41 1366.62 1834.01 1369.75 1836.22 1373.01 C 1838.68 1376.65 1839.28 1381.9 1838.17 1386.11 C 1836.81 1391.23 1832.63 1393.75 1828.32 1396.23 L 1827.17 1396.35 C 1824.67 1396.64 1822.09 1397.13 1819.59 1396.61 C 1815.1 1395.68 1811.52 1392.72 1809 1388.99 C 1806.48 1385.24 1805.45 1380.17 1806.59 1375.78 C 1807.94 1370.58 1811.65 1368.6 1816.03 1366.04 z"/>
<path transform="translate(0,0)" fill="rgb(131,197,190)" d="M 1728.14 1049.95 L 1847.75 1050.12 C 1856.88 1050.28 1867.09 1049.51 1876.06 1050.86 L 1828.43 1050.63 C 1835.26 1066.04 1839.1 1082.76 1844.61 1098.7 L 1886.52 1231.81 L 1887.52 1231.81 C 1872.46 1282.45 1835.91 1324.99 1794.68 1356.61 C 1772.48 1372.89 1750.51 1385.59 1724.76 1395.4 L 1730.97 1084.44 L 1728.14 1049.95 z"/>
<path transform="translate(0,0)" fill="rgb(131,197,190)" d="M 405.111 988.985 C 405.05 985.966 404.937 983.409 405.94 980.5 L 408.51 980.5 C 409.954 961.804 404.68 942.97 401.414 924.695 C 397.092 900.518 393.322 875.539 385.67 852.169 C 382.044 841.091 377.011 830.218 371.191 820.13 L 450.372 613.778 C 453.518 607.027 458.361 596.513 466 594.234 C 470.973 592.75 476.144 595.106 480.482 597.35 C 514.722 615.067 531.389 688.46 542.28 722.802 C 534.61 739.265 522.872 753.809 512.931 769 C 508.664 775.522 503.137 783.005 500.942 790.562 C 498.171 800.104 500.253 814.62 500.636 824.665 L 508.949 938.457 L 511.436 963.252 C 511.652 965.67 512.552 969.971 511.465 972.107 C 510.697 973.615 507.683 975.783 506.325 977.117 C 502.214 981.156 498.428 985.154 495.015 989.821 L 433.713 989.955 C 425.115 989.937 413.164 991.355 405.111 988.985 z"/>
<path transform="translate(0,0)" fill="rgb(0,109,119)" d="M 447.998 876.969 C 451.753 876.79 455.551 876.54 459.173 877.751 C 463.735 879.277 467.904 882.336 470.09 886.68 C 472.112 890.699 472.698 895.708 471.205 900 C 469.224 905.693 464.296 908.394 459.159 910.82 C 455.45 911.386 451.887 911.604 448.156 911.019 C 443.444 910.28 439.523 907.019 436.904 903.138 C 434.533 899.624 434.286 895.176 435.281 891.125 C 437.007 884.1 442.005 880.376 447.998 876.969 z"/>
<path transform="translate(0,0)" fill="rgb(18,62,78)" d="M 1562.7 920.938 C 1565.37 915.357 1568.33 909.707 1570.5 903.914 C 1574.29 893.779 1576.71 883.376 1583.5 874.655 C 1585.31 872.334 1587.62 868.799 1590.69 868.69 C 1602.92 868.256 1615.91 869.502 1628.2 870.03 C 1632.75 870.226 1638.96 869.813 1642.56 872.986 L 1643.5 873.85 C 1649.53 878.861 1654.41 884.325 1659.6 890.176 C 1664.47 897.298 1669.91 903.806 1673.92 911.5 C 1687.86 938.288 1687.76 973.654 1688.97 1003.18 L 1720.86 1003.29 L 1746.49 1003.22 C 1767.29 1004.88 1788.8 1003.98 1809.69 1004 C 1819.41 1004.01 1832.51 1005.49 1841.79 1003.14 C 1845.24 1007.22 1845.06 1013.4 1845.37 1018.63 C 1845.99 1029.09 1846.15 1039.76 1847.75 1050.12 L 1728.14 1049.95 C 1718.86 1048.85 1705.82 1048.18 1696.81 1050.5 L 1696.38 1051.41 C 1694.76 1054.67 1693.02 1056.71 1689.5 1057.95 C 1687.82 1058.54 1686.09 1058.67 1684.36 1059.02 L 1682.44 1059.45 L 1676.97 1119.09 C 1675.38 1134.61 1674.23 1150.29 1670.61 1165.5 C 1668.88 1172.79 1666.72 1180.2 1660.89 1185.26 C 1642.54 1191.59 1619.66 1192.69 1600.49 1190.13 C 1589.16 1188.62 1584.25 1183.55 1577.54 1174.8 C 1562.48 1151.29 1554.45 1119.28 1549.62 1091.93 L 1548.51 1090.94 C 1548.86 1088.3 1549.17 1086.45 1548.18 1083.88 C 1542.69 1081.49 1537.44 1074.89 1534.23 1069.93 L 1533.5 1068.77 C 1532.92 1067.88 1532.25 1067.02 1531.86 1066.02 C 1530.61 1062.79 1530.45 1058.34 1532 1055.32 C 1532.94 1057.27 1533.42 1059.35 1534.01 1061.43 C 1535.65 1066.7 1537.82 1071.13 1542.87 1073.88 C 1546.21 1075.7 1548.41 1074.77 1551.7 1073.65 C 1555.79 1069.98 1557.56 1066.04 1559.06 1060.8 C 1563.86 1044.03 1562.95 1021.98 1559.02 1005.05 C 1558.02 1000.72 1556.9 995.131 1554.5 991.355 C 1552 987.418 1549.37 987.779 1545.15 987.132 L 1542.42 986.571 L 1542.32 985.5 C 1546.25 981.845 1549.6 977.918 1555.06 976.912 L 1554.63 976.018 C 1553.52 972.72 1554.43 967.477 1554.62 964.001 C 1555.45 948.842 1556.73 935.028 1562.7 920.938 z"/>
<path transform="translate(0,0)" fill="rgb(14,44,62)" d="M 1588.51 880.5 L 1589.7 880.657 C 1597.81 882.926 1616.47 910.923 1619.83 918.396 C 1627.04 934.44 1629.05 951.851 1630.62 969.159 C 1633.56 1001.55 1632.69 1031.66 1628.5 1063.9 C 1625.24 1088.95 1620.69 1113.77 1611.71 1137.5 L 1610.74 1136.51 C 1610.34 1134.88 1610.21 1134.18 1610.78 1132.53 C 1627.05 1085.57 1632.31 1030.16 1629 980.66 C 1627.8 962.732 1625.82 945.171 1620.32 928 C 1615.68 913.495 1607.51 901.799 1597.47 890.491 C 1595.25 887.996 1589.79 884.266 1588.7 881.381 L 1588.51 880.5 z"/>
<path transform="translate(0,0)" fill="rgb(16,56,75)" d="M 1562.7 920.938 C 1565.16 922.274 1565.9 923.13 1567.28 925.571 C 1573.6 936.734 1585.91 941.361 1591.49 953.288 C 1597.92 967.025 1599.73 981.535 1601.31 996.424 C 1603.55 1017.67 1604.06 1038.67 1604.11 1060 C 1604.17 1081.16 1604.9 1104.54 1599.47 1125.18 C 1598.06 1130.54 1596.59 1136.4 1594.49 1141.5 L 1583.92 1167.66 C 1583.55 1168.41 1583.36 1169.25 1583.01 1170.01 C 1581.91 1172.32 1579.76 1173.78 1577.54 1174.8 C 1562.48 1151.29 1554.45 1119.28 1549.62 1091.93 L 1548.51 1090.94 C 1548.86 1088.3 1549.17 1086.45 1548.18 1083.88 C 1542.69 1081.49 1537.44 1074.89 1534.23 1069.93 L 1533.5 1068.77 C 1532.92 1067.88 1532.25 1067.02 1531.86 1066.02 C 1530.61 1062.79 1530.45 1058.34 1532 1055.32 C 1532.94 1057.27 1533.42 1059.35 1534.01 1061.43 C 1535.65 1066.7 1537.82 1071.13 1542.87 1073.88 C 1546.21 1075.7 1548.41 1074.77 1551.7 1073.65 C 1555.79 1069.98 1557.56 1066.04 1559.06 1060.8 C 1563.86 1044.03 1562.95 1021.98 1559.02 1005.05 C 1558.02 1000.72 1556.9 995.131 1554.5 991.355 C 1552 987.418 1549.37 987.779 1545.15 987.132 L 1542.42 986.571 L 1542.32 985.5 C 1546.25 981.845 1549.6 977.918 1555.06 976.912 L 1554.63 976.018 C 1553.52 972.72 1554.43 967.477 1554.62 964.001 C 1555.45 948.842 1556.73 935.028 1562.7 920.938 z"/>
<path transform="translate(0,0)" fill="rgb(237,246,249)" d="M 1555.06 976.912 C 1558.62 977.496 1560.75 978.057 1563.03 981 C 1567.49 986.752 1569.07 994.916 1570.14 1001.96 C 1572.87 1019.86 1573 1039.44 1570 1057.3 C 1568.13 1068.45 1565.06 1080.92 1558.89 1090.5 C 1555.65 1092.39 1553.33 1091.91 1549.62 1091.93 L 1548.51 1090.94 C 1548.86 1088.3 1549.17 1086.45 1548.18 1083.88 C 1542.69 1081.49 1537.44 1074.89 1534.23 1069.93 L 1533.5 1068.77 C 1532.92 1067.88 1532.25 1067.02 1531.86 1066.02 C 1530.61 1062.79 1530.45 1058.34 1532 1055.32 C 1532.94 1057.27 1533.42 1059.35 1534.01 1061.43 C 1535.65 1066.7 1537.82 1071.13 1542.87 1073.88 C 1546.21 1075.7 1548.41 1074.77 1551.7 1073.65 C 1555.79 1069.98 1557.56 1066.04 1559.06 1060.8 C 1563.86 1044.03 1562.95 1021.98 1559.02 1005.05 C 1558.02 1000.72 1556.9 995.131 1554.5 991.355 C 1552 987.418 1549.37 987.779 1545.15 987.132 L 1542.42 986.571 L 1542.32 985.5 C 1546.25 981.845 1549.6 977.918 1555.06 976.912 z"/>
<path transform="translate(0,0)" fill="rgb(131,197,190)" d="M 1049.82 1307.2 C 1089.24 1319.66 1132.07 1329.55 1173.13 1334.62 C 1181.52 1335.66 1190.04 1336.72 1198.5 1336.91 C 1205.1 1337.05 1214.88 1335.29 1221.08 1337.03 C 1232.22 1340.14 1244.09 1351.4 1253.81 1357.78 L 1294.86 1293.21 C 1298.23 1288.04 1302.3 1279.55 1306.86 1275.76 C 1302.49 1290.01 1292.7 1302.4 1284.53 1314.73 C 1274.46 1329.92 1263.05 1346.18 1254.61 1362.26 C 1237.65 1394.62 1230.79 1430.07 1233.18 1466.36 C 1233.95 1478.05 1235.73 1489.81 1238.27 1501.25 C 1239.13 1505.12 1239.75 1510.13 1241.55 1513.65 C 1242.64 1515.78 1243.87 1516.01 1245.93 1516.99 C 1244.42 1524.85 1247.28 1535.8 1247.86 1544.02 L 1252.89 1613.04 C 1253.44 1619.95 1252.77 1630.95 1255.28 1637.09 L 1254.98 1638.15 C 1247.9 1641.18 1235.42 1674.63 1230.21 1683.11 C 1227.86 1686.92 1224.38 1690.12 1221.23 1693.26 L 1116.28 1557.86 C 1103.04 1540.59 1087.55 1523.01 1076.5 1504.34 C 1065.49 1485.74 1055.47 1460.8 1052.12 1439.38 C 1049.16 1420.45 1049.98 1401.27 1050.01 1382.17 L 1049.82 1307.2 z"/>
<path transform="translate(0,0)" fill="rgb(131,197,190)" d="M 1454.37 1046.8 L 1533.75 1048.04 L 1534.01 1061.43 C 1533.42 1059.35 1532.94 1057.27 1532 1055.32 C 1530.45 1058.34 1530.61 1062.79 1531.86 1066.02 C 1532.25 1067.02 1532.92 1067.88 1533.5 1068.77 L 1534.23 1069.93 C 1537.44 1074.89 1542.69 1081.49 1548.18 1083.88 C 1549.17 1086.45 1548.86 1088.3 1548.51 1090.94 L 1549.62 1091.93 C 1554.45 1119.28 1562.48 1151.29 1577.54 1174.8 C 1584.25 1183.55 1589.16 1188.62 1600.49 1190.13 C 1619.66 1192.69 1642.54 1191.59 1660.89 1185.26 L 1661.58 1186.62 C 1660.1 1197.6 1660.61 1209.44 1660.43 1220.54 L 1659.85 1285.29 L 1658.05 1459.34 C 1656.09 1457.75 1653.37 1455.24 1651 1454.33 C 1649.49 1453.75 1645.32 1454.17 1643.61 1454.13 L 1618.92 1454.13 L 1488.28 1453.88 L 1454.79 1453.31 C 1448.58 1453.17 1441.9 1453.48 1435.8 1452.35 C 1429.7 1451.22 1424.92 1448.89 1421.4 1443.6 C 1418.37 1439.06 1416.53 1432.9 1414.93 1427.7 C 1410.87 1414.46 1408.61 1400.65 1406.73 1386.95 C 1402.83 1358.43 1400.69 1328.08 1402.16 1299.34 C 1404.99 1244.03 1418.78 1188.32 1432.67 1134.84 C 1440.29 1105.5 1448.76 1076.62 1454.37 1046.8 z"/>
<path transform="translate(0,0)" fill="rgb(237,246,249)" d="M 1716.18 368.161 C 1721.67 370.487 1743.56 410.048 1747.99 417.53 C 1783.29 477.201 1819.95 536.908 1850.89 598.966 L 1901.98 713 C 1912.8 739.707 1922.8 767.991 1929.93 795.913 L 1940.82 848.18 C 1950.71 899.343 1956.99 951.205 1949.97 1003.23 L 1934.47 1003.21 L 1841.79 1003.14 C 1832.51 1005.49 1819.41 1004.01 1809.69 1004 C 1788.8 1003.98 1767.29 1004.88 1746.49 1003.22 L 1720.86 1003.29 L 1724.94 770.623 L 1723.6 635.346 L 1722.56 567 C 1722.81 557.928 1722.57 549.128 1724.38 540.165 C 1721.82 527.612 1721.36 514.522 1720.41 501.777 L 1716.18 368.161 z"/>
<path transform="translate(0,0)" fill="rgb(131,197,190)" d="M 1724.38 540.165 C 1739.92 610.616 1762.54 678.57 1783.59 747.452 L 1814.16 854.945 C 1821.65 882.36 1831.96 909.959 1836.78 937.964 L 1849.14 991.323 C 1846.35 994.472 1842.66 997.775 1841.55 1001.91 L 1841.79 1003.14 C 1832.51 1005.49 1819.41 1004.01 1809.69 1004 C 1788.8 1003.98 1767.29 1004.88 1746.49 1003.22 L 1720.86 1003.29 L 1724.94 770.623 L 1723.6 635.346 L 1722.56 567 C 1722.81 557.928 1722.57 549.128 1724.38 540.165 z"/>
<path transform="translate(0,0)" fill="rgb(0,109,119)" d="M 1746.49 1003.22 L 1814.48 1003.44 L 1816.2 995.647 C 1818.28 987.521 1831.75 940.947 1836.78 937.964 L 1849.14 991.323 C 1846.35 994.472 1842.66 997.775 1841.55 1001.91 L 1841.79 1003.14 C 1832.51 1005.49 1819.41 1004.01 1809.69 1004 C 1788.8 1003.98 1767.29 1004.88 1746.49 1003.22 z"/>
<path transform="translate(0,0)" fill="rgb(244,177,146)" d="M 671.888 622.752 L 680.93 619 C 672.342 633.493 667.124 650.792 671.678 667.708 C 673.359 673.953 678.489 678.38 684.003 681.282 L 691.349 684.834 L 715.776 694.574 L 718.5 695.148 L 719.49 697.5 L 718.882 698.812 L 719.034 699.735 C 743.275 704.263 768.9 708.495 792.222 716.677 C 780.048 733.564 769.951 745.417 751.321 755.608 L 748.818 760.505 C 747.855 762.401 746.649 763.657 745.411 765.354 L 744.83 766.3 C 753.361 762.136 761.987 756.358 770.865 753.195 C 770.862 770.522 769.441 789.467 772.362 806.53 C 777.906 828.487 786.981 848.255 794.343 869.51 C 804.56 899.007 806.75 933.546 800.393 964.113 C 798.771 971.913 795.204 978.922 793.294 986.577 L 791.571 1006.36 L 679.756 1003.9 C 660.182 1003.74 638.971 1004.67 619.558 1002.23 L 609.032 1037.23 L 630.632 1042.28 C 631.38 1046.93 631.297 1050.13 628.401 1054.03 C 626.545 1056.53 624.309 1057.49 621.252 1057.75 C 617.904 1058.04 614.354 1056.96 611.124 1056.16 L 611.253 1077.09 L 606.182 1087 C 603.832 1090.57 600.066 1093.76 595.806 1094.56 C 581.646 1097.22 517.971 1094.72 507.069 1086.12 C 499.469 1080.13 501.743 1067.06 500.945 1058.54 L 500.766 1056.77 L 501.329 1054.52 C 502.794 1050.08 502.987 1047.55 502.672 1042.76 C 501.943 1041.02 501.133 1039.65 500.135 1038.07 C 496.676 1036.84 494.059 1033.5 491.524 1030.91 L 488.193 1023.09 C 484.389 1010.89 489.642 1000.47 495.015 989.821 C 498.428 985.154 502.214 981.156 506.325 977.117 C 507.683 975.783 510.697 973.615 511.465 972.107 C 512.552 969.971 511.652 965.67 511.436 963.252 L 508.949 938.457 L 500.636 824.665 C 500.253 814.62 498.171 800.104 500.942 790.562 C 503.137 783.005 508.664 775.522 512.931 769 C 522.872 753.809 534.61 739.265 542.28 722.802 C 559.033 692.147 595.337 664.588 626.936 650.776 C 637.795 646.029 652.198 643.253 661.968 636.925 C 665.244 634.803 667.041 631.642 668.741 628.249 L 671.888 622.752 z"/>
<path transform="translate(0,0)" fill="rgb(178,73,70)" d="M 558.412 1014.68 C 559.938 1016.61 560.674 1017.51 560.794 1020.01 C 559.142 1025.11 558.318 1029.79 558.111 1035.15 L 556.5 1037.71 L 554.159 1036.97 C 554.384 1028.93 555.519 1022.23 558.412 1014.68 z"/>
<path transform="translate(0,0)" fill="rgb(205,80,67)" d="M 575.033 992.038 L 575.285 996.459 C 569.013 1002.84 563.515 1011.43 560.794 1020.01 C 560.674 1017.51 559.938 1016.61 558.412 1014.68 C 560.186 1006.93 567 997.186 573.064 992.363 L 575.033 992.038 z"/>
<path transform="translate(0,0)" fill="rgb(216,127,109)" d="M 715.776 694.574 L 718.5 695.148 L 719.49 697.5 L 718.882 698.812 L 719.034 699.735 C 715.72 699.966 711.402 698.659 708 698.353 C 698.703 697.516 688.248 696.494 678.964 697.471 L 678 697.588 L 677.645 696.815 C 685.563 692.155 702.569 693.887 711.62 695.207 C 713.909 695.541 713.777 695.384 715.776 694.574 z"/>
<path transform="translate(0,0)" fill="rgb(178,73,70)" d="M 576.819 989.535 C 581.5 990.174 586.216 990.841 590.938 991.049 C 597.481 991.338 605.074 990.226 610.634 994.304 L 610.5 995.958 C 608.611 996.268 607.072 996.313 605.172 996.29 C 603.927 998.543 604.482 997.401 603.5 999.712 C 600.432 999.71 600.313 999.659 598.058 1001.94 C 593.449 1006.61 590.923 1012.92 588.203 1018.79 C 586.451 1020.28 585.595 1021.65 583.229 1021.76 C 585.59 1015.19 588.974 1008.87 593.002 1003.17 C 595.391 999.798 600.473 995.369 601.684 991.618 C 596.756 992.319 591.286 991.997 586.5 992.987 C 582.777 993.756 579.045 995.493 575.285 996.459 L 575.033 992.038 L 576.819 989.535 z"/>
<path transform="translate(0,0)" fill="rgb(216,127,109)" d="M 573.064 992.363 C 571.02 992.081 569.505 992.651 567.5 992.754 C 561.857 993.041 556.071 992.775 550.416 992.731 C 538.869 1004.15 533.15 1016.89 531.97 1033.05 L 531.875 1034.5 L 530.5 1035.47 L 529.213 1033.99 C 528.536 1028.02 529.393 1022.16 531.29 1016.46 L 531.784 1015 C 535.046 1004.89 540.193 996.989 546.759 988.697 L 576.819 989.535 L 575.033 992.038 L 573.064 992.363 z"/>
<path transform="translate(0,0)" fill="url(#Gradient3)" d="M 710.299 773.18 L 751.321 755.608 L 748.818 760.505 C 747.855 762.401 746.649 763.657 745.411 765.354 L 744.83 766.3 C 731.45 772.932 716.452 782.409 702.032 786.328 L 702.533 784.333 C 704.26 783.965 705.123 783.6 706.5 782.49 L 706.5 781 L 708.505 781.75 L 710.505 780.75 L 716.5 778 L 721 776 C 722.167 774.455 721.691 773.656 721.602 771.781 L 719.541 771.22 L 710.384 774.204 C 706.747 775.855 702.942 777.296 699.041 778.169 L 670.082 784.759 C 665.955 785.636 661.794 785.425 657.87 787.146 C 660.02 787.646 659.099 787.373 661.348 788.163 L 663 788.755 L 664.25 788.25 L 667.5 788 C 670.034 787.435 671.746 786.6 674.5 786.51 C 675.882 786.465 677.166 786.463 678.5 786 C 682.711 784.539 687.432 783.984 691.75 782.75 L 693.5 782 L 696 781 C 697.56 780.272 698.769 779.537 700.453 779.078 L 701.75 778.75 L 703.5 778 L 704.65 779.041 C 703.782 779.856 702.327 781.662 701.334 782.153 C 699.788 782.917 696.438 782.946 694.603 783.431 C 661.912 792.084 628.142 793.012 595 799.388 L 593.553 797.5 L 594.5 795.51 L 653.5 786.06 C 671.871 782.971 690.931 779.772 708.594 773.769 L 710.299 773.18 z"/>
<path transform="translate(0,0)" fill="rgb(205,80,67)" d="M 500.135 1038.07 C 500.78 1037.68 502.31 1036.62 502.641 1035.99 C 503.523 1034.33 503.031 1026.8 503.219 1024.5 C 504.106 1013.67 508.807 997.332 516.963 989.597 C 521.765 985.043 536.865 988.01 543.5 988.351 C 541.624 990.689 533.093 989.598 529.642 990.482 C 525.331 991.588 520.792 994.428 517.723 997.602 C 507.517 1008.16 506.167 1022.79 506.573 1036.66 L 553.456 1038.75 L 554.159 1036.97 L 556.5 1037.71 L 558.111 1035.15 L 559.128 1037.48 C 564.256 1039.74 572.182 1039.02 577.853 1039.16 C 580.491 1034.91 581.132 1026.85 583.229 1021.76 C 585.595 1021.65 586.451 1020.28 588.203 1018.79 C 585.717 1025.57 583.525 1032.08 582.17 1039.18 C 590.745 1039.76 598.643 1040.17 606.99 1042.39 C 583.147 1044.14 559.045 1044.62 535.147 1043.94 C 528.912 1043.76 506.77 1041 502.672 1042.76 C 501.943 1041.02 501.133 1039.65 500.135 1038.07 z"/>
<path transform="translate(0,0)" fill="rgb(250,181,156)" d="M 575.285 996.459 C 579.045 995.493 582.777 993.756 586.5 992.987 C 591.286 991.997 596.756 992.319 601.684 991.618 C 600.473 995.369 595.391 999.798 593.002 1003.17 C 588.974 1008.87 585.59 1015.19 583.229 1021.76 C 581.132 1026.85 580.491 1034.91 577.853 1039.16 C 572.182 1039.02 564.256 1039.74 559.128 1037.48 L 558.111 1035.15 C 558.318 1029.79 559.142 1025.11 560.794 1020.01 C 563.515 1011.43 569.013 1002.84 575.285 996.459 z"/>
<path transform="translate(0,0)" fill="rgb(0,109,119)" d="M 744.83 766.3 C 753.361 762.136 761.987 756.358 770.865 753.195 C 770.862 770.522 769.441 789.467 772.362 806.53 C 777.906 828.487 786.981 848.255 794.343 869.51 C 804.56 899.007 806.75 933.546 800.393 964.113 C 798.771 971.913 795.204 978.922 793.294 986.577 L 791.571 1006.36 L 679.756 1003.9 C 660.182 1003.74 638.971 1004.67 619.558 1002.23 C 619.795 999.164 619.768 995.176 618.331 992.378 C 616.428 988.673 609.982 983.938 609.741 980.064 C 608.745 964.068 610.499 947.317 610.948 931.281 C 612.142 888.649 612.056 845.585 601.259 804.118 C 613.608 801.296 626.707 801.204 639.302 800.217 C 659.202 798.659 682.22 795.452 700.537 787.037 L 702.032 786.328 C 716.452 782.409 731.45 772.932 744.83 766.3 z"/>
<path transform="translate(0,0)" fill="rgb(205,80,67)" d="M 926.874 539.005 L 927.868 540.053 C 932.762 545.638 934.963 557.061 937.21 564 C 950.869 606.185 965.98 649.189 1016.94 655.005 C 1033.07 656.846 1055.07 655.427 1068.43 644.964 C 1071.99 642.178 1073.26 638.82 1073.7 634.418 C 1074.73 624.031 1074.14 612.582 1073.32 602.17 C 1072.87 596.368 1068.83 568.4 1070.73 564.788 C 1071.52 563.283 1074.77 560.709 1076.06 559.404 C 1081.36 562.532 1087.92 565.905 1092.07 570.507 C 1097.9 586.649 1102.61 602.767 1106.12 619.562 L 1113.56 660.256 L 1127.29 713.111 C 1131.02 726.57 1135.94 739.439 1141.72 752.147 C 1142.98 754.918 1148.63 763.969 1148.47 765.969 C 1147.88 767.501 1147.21 768.39 1147.51 770.027 C 1149.54 781.122 1141.32 793.703 1135.05 802.535 L 1120.82 819.897 L 1118.41 822.745 C 1109.77 832.105 1108.06 845.332 1104.96 857.235 L 1091.88 906 C 1090.18 911.99 1088.83 919.339 1086.24 924.938 C 1081.82 941.351 1075.29 956.883 1068.27 972.322 L 1061.11 989.957 C 1037.02 992.814 1012.97 993.579 988.756 994.305 L 874.805 993.848 C 848.259 992.826 819.288 992.352 793.294 986.577 C 795.204 978.922 798.771 971.913 800.393 964.113 C 806.75 933.546 804.56 899.007 794.343 869.51 C 786.981 848.255 777.906 828.487 772.362 806.53 C 769.441 789.467 770.862 770.522 770.865 753.195 C 761.987 756.358 753.361 762.136 744.83 766.3 L 745.411 765.354 C 746.649 763.657 747.855 762.401 748.818 760.505 L 751.321 755.608 C 769.951 745.417 780.048 733.564 792.222 716.677 C 768.9 708.495 743.275 704.263 719.034 699.735 L 718.882 698.812 L 719.49 697.5 L 718.5 695.148 L 715.776 694.574 L 691.349 684.834 L 684.003 681.282 C 678.489 678.38 673.359 673.953 671.678 667.708 C 667.124 650.792 672.342 633.493 680.93 619 C 683.142 613.194 690.626 607.408 694.975 603.048 L 697.55 602.595 C 736.396 567.481 787.122 565.891 836.349 560.424 L 882.003 551.47 C 897.224 547.95 912.282 544.692 926.874 539.005 z"/>
<path transform="translate(0,0)" fill="rgb(178,73,70)" d="M 1068.27 972.322 L 1067.01 969.25 L 1068.51 967 C 1068.87 966.169 1068.97 964.81 1069.51 964 L 1070.5 963 L 1071.01 961.25 L 1071.76 960 C 1072.83 956.784 1071.08 959.562 1072.77 957.016 L 1073.5 956 L 1073.51 954.5 L 1074.75 953.75 L 1074.51 951.25 C 1073.34 953.481 1072.19 957.141 1069.95 958.233 L 1076.24 941.085 C 1077.84 936.425 1079.42 930.279 1082.49 926.421 L 1083.75 927.505 L 1084.03 925.546 L 1086.24 924.938 C 1081.82 941.351 1075.29 956.883 1068.27 972.322 z"/>
<path transform="translate(0,0)" fill="rgb(178,73,70)" d="M 1043.7 889.139 C 1056.89 885.314 1069.71 881.597 1083.29 879.418 C 1087.21 878.789 1091.65 877.501 1095.5 878.624 L 1095 879.98 C 1088.77 882.622 1081.45 883.674 1074.86 885.339 L 1041.6 893.677 L 1043.7 889.139 z"/>
<path transform="translate(0,0)" fill="rgb(144,55,59)" d="M 870.146 799.5 C 900.12 800.077 929.898 804.048 959.908 803.954 C 1012.38 803.791 1067.21 792.165 1118.95 806.066 L 1119.5 807.96 C 1067.07 797.96 1014.07 806.062 961.313 806.153 C 930.36 806.206 899.841 801.648 869 800.531 L 870.146 799.5 z"/>
<path transform="translate(0,0)" fill="rgb(144,55,59)" d="M 1041.6 893.677 C 1022 899.387 1002.3 905.473 982.2 909.195 C 940.276 916.957 895.475 916.405 855.077 902.113 C 849.598 900.174 843.351 898.989 838.221 896.5 C 845.141 895.34 852.579 898.571 859.277 900.429 C 868.983 903.121 878.743 905.592 888.685 907.249 C 940.984 915.962 993.665 904.252 1043.7 889.139 L 1041.6 893.677 z"/>
<path transform="translate(0,0)" fill="rgb(244,177,146)" d="M 836.349 560.424 L 882.003 551.47 C 887.136 559.216 888.595 568.282 890.316 577.247 C 896.388 608.893 896.09 638.971 889.654 670.525 C 880.682 714.512 861.597 755.893 823.102 781.243 C 807.894 791.257 791.919 796.511 775.897 804.541 L 772.362 806.53 C 769.441 789.467 770.862 770.522 770.865 753.195 C 761.987 756.358 753.361 762.136 744.83 766.3 L 745.411 765.354 C 746.649 763.657 747.855 762.401 748.818 760.505 L 751.321 755.608 C 769.951 745.417 780.048 733.564 792.222 716.677 C 768.9 708.495 743.275 704.263 719.034 699.735 L 718.882 698.812 L 719.49 697.5 L 718.5 695.148 L 715.776 694.574 L 691.349 684.834 L 684.003 681.282 C 678.489 678.38 673.359 673.953 671.678 667.708 C 667.124 650.792 672.342 633.493 680.93 619 C 683.142 613.194 690.626 607.408 694.975 603.048 L 697.55 602.595 C 736.396 567.481 787.122 565.891 836.349 560.424 z"/>
<path transform="translate(0,0)" fill="rgb(216,127,109)" d="M 694.975 603.048 L 697.55 602.595 L 696.687 604.141 C 694.657 607.721 691.959 610.867 690.037 614.506 C 682.873 628.067 674.335 651.955 679.362 667.328 C 681.033 672.439 686.728 676.13 691 678.908 L 693.255 680.439 L 691.349 684.834 L 684.003 681.282 C 678.489 678.38 673.359 673.953 671.678 667.708 C 667.124 650.792 672.342 633.493 680.93 619 C 683.142 613.194 690.626 607.408 694.975 603.048 z"/>
<path transform="translate(0,0)" fill="rgb(216,127,109)" d="M 758.838 600.468 C 772.678 595.894 787.568 593.67 802 591.879 C 810.966 590.767 820.949 589.073 829.888 590.5 C 826.083 593.221 816.11 593.329 811.316 594.065 C 797.002 596.262 780.37 597.83 766.727 602.679 L 764.53 603.108 C 738.86 609.597 726.282 635.405 715.941 657.424 C 713.663 662.277 712.125 667.559 709.34 672.131 C 709.644 667.166 710.306 662.485 711.585 657.679 C 716.979 637.421 726.984 615.982 746.141 605.5 C 750.15 603.307 754.496 601.839 758.838 600.468 z"/>
<path transform="translate(0,0)" fill="rgb(216,127,109)" d="M 794.679 729.098 C 794.366 733.753 793.886 738.208 792.693 742.729 L 780.984 782.5 C 779.149 789.582 778.814 797.941 775.897 804.541 L 772.362 806.53 C 769.441 789.467 770.862 770.522 770.865 753.195 C 775.591 751.782 781.013 744.319 784.279 740.674 C 787.379 736.294 790.828 732.8 794.679 729.098 z"/>
<path transform="translate(0,0)" fill="rgb(230,164,139)" d="M 794.679 729.098 C 794.366 733.753 793.886 738.208 792.693 742.729 L 791.682 742.186 C 788.887 741.421 790.5 743.348 788.5 744.666 L 787.755 743 L 788.5 742 L 789 740.5 C 789.955 738.017 789.865 739.556 789.5 737 C 788.198 738.498 787.393 739.567 785.483 740.309 L 784.279 740.674 C 787.379 736.294 790.828 732.8 794.679 729.098 z"/>
<path transform="translate(0,0)" fill="rgb(205,80,67)" d="M 691.349 684.834 L 693.255 680.439 C 705.004 686.35 717.654 692.687 730.848 694.484 C 748.947 696.95 766.699 693.016 784.5 690.37 C 802.064 687.759 819.793 685.756 837.564 685.797 C 845.1 685.814 853.832 685.735 861.029 688.293 C 866.219 690.137 871.589 694.77 875.527 698.502 C 870.609 696.339 865.568 693.946 860.342 692.656 C 847.697 689.535 834.345 690.142 821.5 691.159 L 756.498 698.881 C 765.95 700.291 774.861 701.629 783.838 705.139 C 808.966 714.964 828.918 735.579 847.078 754.827 C 827.894 747.74 816.043 733.638 799.568 722.571 L 794.679 729.098 C 790.828 732.8 787.379 736.294 784.279 740.674 C 781.013 744.319 775.591 751.782 770.865 753.195 C 761.987 756.358 753.361 762.136 744.83 766.3 L 745.411 765.354 C 746.649 763.657 747.855 762.401 748.818 760.505 L 751.321 755.608 C 769.951 745.417 780.048 733.564 792.222 716.677 C 768.9 708.495 743.275 704.263 719.034 699.735 L 718.882 698.812 L 719.49 697.5 L 718.5 695.148 L 715.776 694.574 L 691.349 684.834 z"/>
<path transform="translate(0,0)" fill="rgb(131,197,190)" d="M 399.974 1053.98 C 412.721 1054.16 426.721 1053.79 439.264 1055.85 L 477.085 1057.45 C 485.031 1057.67 492.91 1058.24 500.766 1056.77 L 500.945 1058.54 C 501.743 1067.06 499.469 1080.13 507.069 1086.12 C 517.971 1094.72 581.646 1097.22 595.806 1094.56 C 600.066 1093.76 603.832 1090.57 606.182 1087 L 611.253 1077.09 L 609.827 1165.79 C 610.114 1169.06 610.3 1172.34 611.094 1175.54 C 612.775 1182.32 612.255 1190.96 612.495 1197.96 L 613.149 1260.37 L 613.119 1457.7 L 613.112 1518.34 C 613.113 1529.28 612.421 1540.74 613.511 1551.61 C 610.089 1559.76 607.178 1566.15 606.965 1575.06 L 605.5 1570.37 C 602.692 1571.64 601.338 1575.85 600.155 1578.6 C 596.427 1587.27 593.396 1597.55 587.818 1605.17 C 581.343 1603.9 573.098 1604.85 566.386 1604.87 L 520.777 1604.92 L 403.993 1604.11 L 327.992 1603.22 L 330.391 1281.45 L 346.113 1146.24 L 349.207 1120 C 349.442 1117.85 349.267 1112.31 350.101 1110.53 C 350.48 1109.72 351.45 1109.35 352.124 1108.77 L 368.5 1111.42 C 374.114 1112.23 384.781 1113.45 389.5 1109.64 C 396.878 1103.67 396.618 1091.45 397.504 1082.77 L 397.554 1082.76 L 399.974 1053.98 z"/>
<path transform="translate(0,0)" fill="rgb(0,109,119)" d="M 472.754 1417.5 C 475.496 1416.72 478.721 1416.72 481.5 1417.39 C 486.036 1418.47 490.892 1421.83 493.35 1425.83 C 495.966 1430.09 496.894 1435.64 495.365 1440.45 C 493.456 1446.45 489.071 1449.19 483.755 1451.91 L 476.5 1451.96 C 471.971 1451.35 466.073 1447.04 463.72 1443.23 C 461.058 1438.91 460.83 1433.05 462.344 1428.28 C 463.924 1423.3 468.271 1419.76 472.754 1417.5 z"/>
<path transform="translate(0,0)" fill="rgb(0,109,119)" d="M 490.588 1315.2 C 493.161 1315.42 495.918 1315.57 498.363 1316.45 C 503.391 1318.26 508.241 1322.59 510.221 1327.6 C 511.761 1331.49 511.687 1337.19 509.718 1340.93 C 506.092 1347.82 501.333 1350.04 494.175 1352.14 C 489.881 1352.16 486.055 1352.26 482.243 1349.98 C 477.814 1347.32 474.162 1342.98 473.077 1337.84 C 472.14 1333.4 472.83 1327.41 475.5 1323.66 C 478.989 1318.76 484.939 1316.38 490.588 1315.2 z"/>
<path transform="translate(0,0)" fill="rgb(0,109,119)" d="M 471.945 1491.22 C 476.56 1490.66 481.628 1490.3 486.127 1491.75 C 491.243 1493.39 495.755 1498.32 497.949 1503.12 C 499.706 1506.97 499.625 1512.14 497.922 1516 C 494.952 1522.72 491.461 1525.28 484.77 1527.92 C 480.499 1528.66 476.768 1529.02 472.5 1528 C 467.515 1526.81 462.777 1522.07 460.308 1517.76 C 457.63 1513.08 457.489 1507.32 459.275 1502.33 C 461.47 1496.2 466.469 1493.79 471.945 1491.22 z"/>
<path transform="translate(0,0)" fill="rgb(237,246,249)" d="M 439.264 1055.85 L 477.085 1057.45 C 485.031 1057.67 492.91 1058.24 500.766 1056.77 L 500.945 1058.54 C 501.743 1067.06 499.469 1080.13 507.069 1086.12 C 517.971 1094.72 581.646 1097.22 595.806 1094.56 C 600.066 1093.76 603.832 1090.57 606.182 1087 L 611.253 1077.09 L 609.827 1165.79 C 607.864 1179.81 603.031 1191.31 594.557 1202.59 L 438.091 1198.96 L 439.264 1055.85 z"/>
<path transform="translate(0,0)" fill="rgb(237,246,249)" d="M 476.95 1790.19 C 479.928 1780.9 481.461 1771.14 484.896 1762.02 C 488.609 1752.15 494.102 1742.97 497.604 1733.09 C 504.957 1712.36 508.017 1689.59 520.387 1670.85 C 523.096 1666.74 526.804 1661.54 531 1658.87 C 532.401 1657.98 533.914 1657.64 535.5 1657.24 L 537.5 1657.98 C 537.933 1663.58 532.185 1670.21 530.223 1675.69 C 527.392 1683.6 530.033 1689.16 529.23 1696.63 C 529.058 1698.23 524.489 1703.28 523.333 1704.7 C 509.831 1721.29 495.857 1740.11 499.674 1762.5 L 499.942 1764.15 C 502.939 1781.45 519.669 1795.88 530.993 1808.3 C 543.899 1822.45 556.511 1837.25 572.396 1848.21 C 574.551 1849.69 576.708 1851.23 579.121 1852.27 L 589.294 1857.42 C 603.051 1849.8 614.055 1846.86 629.5 1851.26 C 634.716 1852.74 639.829 1855.02 644.624 1857.54 C 642.986 1850.87 622.961 1846.01 617.588 1841.66 C 602.128 1829.16 597.053 1803.54 594.796 1785.02 C 613.162 1787.59 631.108 1786.67 649.575 1786.06 L 705.5 1784.32 L 892.852 1777.57 L 1154.01 1778.81 L 1239.8 1782.01 L 1222.62 1812.49 L 1467.11 1830 C 1456.19 1822.14 1444.95 1814.24 1432.88 1808.24 C 1421.44 1802.56 1409.02 1798.16 1398.08 1791.62 L 1657.13 1801.81 L 1720.93 1806.18 C 1771.06 1808.21 1924.29 1818.4 1959.5 1845.03 L 1959.82 1847.5 C 1958.64 1848.75 1957.41 1849.99 1956 1850.98 C 1932.15 1867.77 1817.68 1876.72 1782.86 1880.9 L 1514.16 1903.62 L 1370.33 1913.23 L 804.6 1918.17 L 650 1912.84 L 469.5 1900 L 394.609 1894.21 L 215.734 1873.34 C 186.764 1869.75 157.663 1865.15 129.153 1858.86 C 120.21 1856.89 105.263 1855.16 99.3871 1847.62 C 99.5956 1844.51 99.7242 1843.95 101.828 1841.63 C 111.996 1830.43 146.681 1825.17 162.277 1822.11 C 265.623 1801.76 371.803 1794.05 476.95 1790.19 z"/>
<path transform="translate(0,0)" fill="rgb(131,197,190)" d="M 1386.05 299.471 C 1386.66 303.882 1387.2 308.246 1387.42 312.699 C 1387.47 313.82 1387.28 317.642 1387.65 318.464 C 1388.32 319.943 1394.49 324.158 1396 325.268 C 1402.83 330.273 1410.61 334.399 1417.95 338.623 C 1434.59 348.191 1451.46 356.782 1469.34 363.776 C 1483.94 369.486 1499.11 374.102 1513.07 381.3 L 1505.32 348.139 L 1601.25 346.915 L 1602.6 347.163 C 1605.91 347.746 1608.35 348.208 1611.63 347.386 L 1612.44 348.054 C 1621.93 355.651 1633.72 361.725 1644.17 368.068 C 1652.83 373.329 1662.81 380.507 1672.36 383.83 L 1663.93 643.328 L 1659.32 796.42 C 1658.74 826.541 1657.05 857.414 1659.63 887.439 C 1659.76 888.989 1659.73 888.357 1659.6 890.176 C 1654.41 884.325 1649.53 878.861 1643.5 873.85 L 1642.56 872.986 C 1638.96 869.813 1632.75 870.226 1628.2 870.03 C 1615.91 869.502 1602.92 868.256 1590.69 868.69 C 1587.62 868.799 1585.31 872.334 1583.5 874.655 C 1576.71 883.376 1574.29 893.779 1570.5 903.914 C 1568.33 909.707 1565.37 915.357 1562.7 920.938 C 1556.73 935.028 1555.45 948.842 1554.62 964.001 C 1554.43 967.477 1553.52 972.72 1554.63 976.018 L 1555.06 976.912 C 1549.6 977.918 1546.25 981.845 1542.32 985.5 L 1542.42 986.571 L 1545.15 987.132 L 1544.29 987.395 C 1539.32 988.995 1535.47 992.193 1533.27 997 C 1532.62 998.436 1532.29 999.976 1531.92 1001.5 L 1530.67 1006.71 L 1387.79 1004.06 L 1382.82 1004 L 1353.32 1004.2 L 1225.86 1004.18 L 1227.46 889.93 C 1227.69 881.562 1225.74 866.26 1229.23 858.878 C 1221.23 850.211 1211.02 842.974 1202.39 834.846 C 1181.07 814.765 1163.17 791.283 1148.47 765.969 C 1148.63 763.969 1142.98 754.918 1141.72 752.147 C 1135.94 739.439 1131.02 726.57 1127.29 713.111 L 1113.56 660.256 L 1106.12 619.562 C 1102.61 602.767 1097.9 586.649 1092.07 570.507 L 1093.76 570.799 C 1106.25 572.864 1119.09 572.14 1131.7 572.729 C 1170.3 574.532 1215.67 579.434 1244.41 607.74 L 1249.7 615.184 C 1254 607.373 1251.73 560.122 1251.7 548.318 C 1257.65 548.884 1272.44 548.225 1276.93 551.5 L 1277.78 559 C 1274.38 563.774 1271.97 570.059 1272.08 576 C 1272.19 581.546 1274.25 586.196 1278.32 589.959 C 1285.63 596.71 1296.42 598.491 1306.03 598.048 C 1311.78 597.783 1315.14 595.884 1319 591.727 C 1319.9 578.441 1320.2 559.926 1312.86 548.385 C 1315.74 547.25 1317.75 545.673 1320.03 543.635 C 1313.32 538.317 1303.94 536.678 1296.03 533.604 L 1295.34 523.961 L 1291.68 523.621 C 1292.1 514.899 1295.28 506.842 1291.73 498.441 C 1295.62 496.239 1299.09 495.476 1303.47 494.745 L 1305.38 494.712 C 1306.25 494.27 1306.44 494.133 1307.52 493.856 C 1312.26 492.65 1327.16 490.691 1331.05 493.216 L 1332.94 494.93 C 1334.71 493.624 1336.28 492.556 1338.5 492.126 C 1342.03 491.444 1349.75 491.299 1352.87 493.105 L 1353.25 495.695 L 1355.06 495.186 C 1361.91 491.949 1368.84 492.86 1376.42 493.4 L 1386.72 495.224 C 1383.96 488.182 1384.95 479.355 1384.91 471.849 L 1384.9 433.401 L 1386.05 299.471 z"/>
<path transform="translate(0,0)" fill="url(#Gradient4)" d="M 1382.96 991.25 C 1380.35 975.414 1377.75 956.177 1384.71 941.293 L 1386.09 982.352 L 1385.64 991.85 L 1382.96 991.25 z"/>
<path transform="translate(0,0)" fill="rgb(244,177,146)" d="M 1305.38 494.712 C 1306.25 494.27 1306.44 494.133 1307.52 493.856 C 1312.26 492.65 1327.16 490.691 1331.05 493.216 L 1332.94 494.93 C 1334.71 493.624 1336.28 492.556 1338.5 492.126 C 1342.03 491.444 1349.75 491.299 1352.87 493.105 L 1353.25 495.695 L 1355.06 495.186 C 1361.91 491.949 1368.84 492.86 1376.42 493.4 L 1386.72 495.224 L 1403.51 496.267 C 1408.84 497.574 1412.75 497.984 1415.74 503.14 C 1417.76 506.613 1417.06 511.797 1418.87 515.018 C 1425.99 524.269 1429.72 546.671 1428.81 558.307 L 1439.94 697.588 C 1441.94 709.113 1442.92 724.535 1441.33 736.12 C 1439.94 737.845 1440.76 737.448 1439.2 737.813 L 1442.29 836.592 C 1442.84 856.96 1445.03 879.806 1439.29 899.588 C 1436.81 908.136 1431.92 914.782 1425.67 920.937 C 1420.69 925.848 1415.67 929.446 1409.21 932.227 C 1393.11 934.212 1377.34 930.6 1361.61 927.541 C 1347.68 924.832 1333.77 922.278 1320.28 917.758 C 1306.95 913.289 1295.27 906.265 1283.64 898.5 C 1277.16 894.167 1271.59 890.597 1267.98 883.34 C 1262.39 882.919 1239.72 867.899 1235.37 863.238 C 1234.88 862.127 1230.46 859.712 1229.23 858.878 C 1221.23 850.211 1211.02 842.974 1202.39 834.846 C 1181.07 814.765 1163.17 791.283 1148.47 765.969 C 1148.63 763.969 1142.98 754.918 1141.72 752.147 C 1135.94 739.439 1131.02 726.57 1127.29 713.111 L 1113.56 660.256 L 1106.12 619.562 C 1102.61 602.767 1097.9 586.649 1092.07 570.507 L 1093.76 570.799 C 1106.25 572.864 1119.09 572.14 1131.7 572.729 C 1170.3 574.532 1215.67 579.434 1244.41 607.74 L 1249.7 615.184 C 1254 607.373 1251.73 560.122 1251.7 548.318 C 1257.65 548.884 1272.44 548.225 1276.93 551.5 L 1277.78 559 C 1274.38 563.774 1271.97 570.059 1272.08 576 C 1272.19 581.546 1274.25 586.196 1278.32 589.959 C 1285.63 596.71 1296.42 598.491 1306.03 598.048 C 1311.78 597.783 1315.14 595.884 1319 591.727 C 1319.9 578.441 1320.2 559.926 1312.86 548.385 C 1315.74 547.25 1317.75 545.673 1320.03 543.635 C 1313.32 538.317 1303.94 536.678 1296.03 533.604 L 1295.34 523.961 L 1291.68 523.621 C 1292.1 514.899 1295.28 506.842 1291.73 498.441 C 1295.62 496.239 1299.09 495.476 1303.47 494.745 L 1305.38 494.712 z"/>
<path transform="translate(0,0)" fill="rgb(205,80,67)" d="M 1214.66 665.355 C 1217.09 665.256 1220.04 664.924 1222.3 665.974 C 1226.37 667.865 1233.32 673.808 1234.85 678 L 1233.5 679.013 L 1222.5 669.434 C 1215.77 669.03 1208.59 670.802 1202.08 672.384 C 1182.86 677.05 1164.09 684.406 1146.4 693.227 C 1139.77 696.009 1133.03 701.887 1126.5 703.875 L 1126.05 702.5 C 1135.25 695.048 1145.1 689.853 1155.65 684.623 C 1174.67 675.186 1193.52 668.227 1214.66 665.355 z"/>
<path transform="translate(0,0)" fill="rgb(216,127,109)" d="M 1235.37 863.238 C 1250.62 869.977 1263.17 878.793 1279.7 883.253 C 1323.93 895.189 1370.23 888.601 1405.89 922.674 C 1403.82 922.986 1402.47 921.895 1400.78 920.742 C 1385.85 910.545 1367.46 902.889 1349.79 898.973 C 1336.56 896.041 1323.34 895.147 1310 893.16 C 1295.91 891.061 1281.58 887.634 1267.98 883.34 C 1262.39 882.919 1239.72 867.899 1235.37 863.238 z"/>
<path transform="translate(0,0)" fill="rgb(216,127,109)" d="M 1326.46 863.276 C 1296.5 858.701 1265.74 853.105 1238.32 839.641 C 1228.97 835.052 1181.48 804.938 1179.12 798.005 C 1182.61 797.632 1187.04 801.737 1190.02 803.7 L 1212.96 817.614 C 1232.2 828.184 1250.14 839.588 1271.38 846.065 C 1289.93 851.725 1309.17 854.163 1327.83 859.293 L 1325.55 860.536 L 1326.26 862.251 L 1326.46 863.276 z"/>
<path transform="translate(0,0)" fill="rgb(205,80,67)" d="M 1338.07 666.183 C 1338.64 678.165 1330.62 693.158 1326.39 704.271 C 1321.28 717.703 1315.52 733.125 1314.12 747.473 C 1313.03 758.736 1315.59 769.553 1317.67 780.547 C 1319.87 792.139 1321.82 804.248 1325.3 815.517 C 1331.01 833.97 1339.76 851.103 1348.98 868 L 1348 869.065 C 1341.42 864.894 1334.09 864.323 1326.46 863.276 L 1326.26 862.251 L 1325.55 860.536 L 1327.83 859.293 L 1341.67 862.553 C 1323.36 835.989 1316.99 807.552 1310.15 776.531 C 1308.17 767.581 1306.79 756.375 1302.66 748.238 C 1288.08 719.529 1262.16 711.049 1236.18 695.782 C 1244.04 696.497 1252.02 701.245 1258.96 704.857 C 1279.07 715.328 1298.09 725.359 1305.32 748.404 L 1324.44 691.637 C 1325.75 687.867 1328.95 683.946 1331.06 680.5 C 1333.87 675.901 1335.98 671.131 1338.07 666.183 z"/>
<path transform="translate(0,0)" fill="rgb(0,109,119)" d="M 1418.87 515.018 C 1425.99 524.269 1429.72 546.671 1428.81 558.307 L 1439.94 697.588 C 1441.94 709.113 1442.92 724.535 1441.33 736.12 C 1439.94 737.845 1440.76 737.448 1439.2 737.813 L 1433.86 694.679 L 1425.62 645.806 L 1418.88 607.353 C 1418.1 602.573 1416.45 596.602 1417 591.788 C 1418.02 582.882 1423.46 572.115 1426.33 563.447 C 1425.92 546.775 1419.71 531.679 1418.87 515.018 z"/>
<path transform="translate(0,0)" fill="rgb(230,164,139)" d="M 1267.98 883.34 C 1281.58 887.634 1295.91 891.061 1310 893.16 C 1323.34 895.147 1336.56 896.041 1349.79 898.973 C 1367.46 902.889 1385.85 910.545 1400.78 920.742 C 1402.47 921.895 1403.82 922.986 1405.89 922.674 C 1408.49 925.029 1409 928.848 1409.21 932.227 C 1393.11 934.212 1377.34 930.6 1361.61 927.541 C 1347.68 924.832 1333.77 922.278 1320.28 917.758 C 1306.95 913.289 1295.27 906.265 1283.64 898.5 C 1277.16 894.167 1271.59 890.597 1267.98 883.34 z"/>
<path transform="translate(0,0)" fill="rgb(250,181,156)" d="M 1305.38 494.712 C 1306.25 494.27 1306.44 494.133 1307.52 493.856 C 1312.26 492.65 1327.16 490.691 1331.05 493.216 L 1332.94 494.93 C 1334.71 493.624 1336.28 492.556 1338.5 492.126 C 1342.03 491.444 1349.75 491.299 1352.87 493.105 L 1353.25 495.695 L 1355.06 495.186 C 1361.91 491.949 1368.84 492.86 1376.42 493.4 L 1386.72 495.224 L 1403.51 496.267 C 1403.58 498.603 1403.21 501.897 1404.19 503.994 C 1406.5 507.734 1405.31 511.208 1404.98 515.5 C 1404.35 523.853 1403.99 532.191 1402.11 540.385 L 1399.08 551.127 L 1397.98 551.142 C 1379.82 551.531 1344.78 554.452 1332.15 568.5 C 1328.98 572.023 1326.66 575.75 1327.24 580.571 C 1328.46 590.775 1333.19 600.405 1335.57 610.364 C 1337.36 617.882 1337.53 625.474 1338.93 633.009 L 1339.91 641.232 C 1340.5 647.324 1341.11 656.126 1339.49 662 L 1338.99 663.886 C 1338.48 665.72 1338.81 665.097 1338.07 666.183 C 1338.86 655.221 1339.5 643.203 1336.82 632.465 L 1333.92 621 C 1331.88 613.968 1325.21 595.173 1319 591.727 C 1319.9 578.441 1320.2 559.926 1312.86 548.385 C 1315.74 547.25 1317.75 545.673 1320.03 543.635 C 1313.32 538.317 1303.94 536.678 1296.03 533.604 L 1295.34 523.961 L 1291.68 523.621 C 1292.1 514.899 1295.28 506.842 1291.73 498.441 C 1295.62 496.239 1299.09 495.476 1303.47 494.745 L 1305.38 494.712 z"/>
<path transform="translate(0,0)" fill="rgb(230,164,139)" d="M 1324.93 535.163 L 1327 537.089 C 1336.67 529.026 1337.18 516.498 1344.5 507.51 L 1345.49 509 L 1344.81 510.31 C 1343.32 513.294 1341.97 516.775 1340.91 519.928 L 1339.99 522.127 C 1337.5 527.956 1334.67 534.645 1334.75 541.066 C 1331.5 540.423 1328.66 539.69 1325.6 538.398 L 1324.93 535.163 z"/>
<path transform="translate(0,0)" fill="rgb(205,80,67)" d="M 1305.38 494.712 L 1300.29 511.994 L 1299.79 513.995 C 1298.12 519.813 1298.13 524.928 1298.19 530.924 C 1305.46 534.267 1312.08 535.419 1319.72 537.532 C 1321.19 521.328 1322.66 507.53 1331.05 493.216 L 1332.94 494.93 C 1326.14 506.013 1322.09 522.138 1324.93 535.163 L 1325.6 538.398 C 1328.66 539.69 1331.5 540.423 1334.75 541.066 L 1353.16 543.196 C 1351.73 531.713 1352.27 524.213 1357.67 513.716 L 1358.22 512.618 C 1361.01 507.2 1365.37 502.707 1369.5 498.286 L 1371.6 498.352 C 1369.92 501.648 1366.71 503.659 1364.42 506.5 C 1359.3 512.863 1353.06 526.912 1356.53 535.226 C 1357.34 537.179 1358.52 538.32 1360 539.775 L 1363.98 541.001 L 1374.5 541.51 L 1374.31 542.734 C 1369.2 542.942 1361.14 544.323 1357.25 540.144 C 1356.36 539.182 1356.53 539.118 1356 538 L 1355.3 536.613 L 1354.75 535.495 C 1354.36 537.584 1353.65 538.705 1354.62 540.637 C 1355.52 542.446 1355.23 541.747 1355.5 544 C 1358.18 544.111 1359.96 544.24 1362.5 545 C 1364.77 545.679 1371.27 545.151 1373 544 L 1377.96 544.25 L 1375 544.936 L 1373.14 545.399 C 1368.3 546.507 1362.46 545.681 1357.5 545.767 C 1346.26 545.962 1332.5 548.459 1321.82 544.291 L 1320.03 543.635 C 1313.32 538.317 1303.94 536.678 1296.03 533.604 L 1295.34 523.961 L 1291.68 523.621 C 1292.1 514.899 1295.28 506.842 1291.73 498.441 C 1295.62 496.239 1299.09 495.476 1303.47 494.745 L 1305.38 494.712 z"/>
<path transform="translate(0,0)" fill="rgb(234,201,190)" d="M 1291.73 498.441 C 1295.62 496.239 1299.09 495.476 1303.47 494.745 L 1295.34 523.961 L 1291.68 523.621 C 1292.1 514.899 1295.28 506.842 1291.73 498.441 z"/>
<path transform="translate(0,0)" fill="rgb(250,181,156)" d="M 1305.38 494.712 C 1306.25 494.27 1306.44 494.133 1307.52 493.856 C 1312.26 492.65 1327.16 490.691 1331.05 493.216 C 1322.66 507.53 1321.19 521.328 1319.72 537.532 C 1312.08 535.419 1305.46 534.267 1298.19 530.924 C 1298.13 524.928 1298.12 519.813 1299.79 513.995 L 1300.29 511.994 L 1305.38 494.712 z"/>
<path transform="translate(0,0)" fill="url(#Gradient5)" d="M 1363.98 541.001 L 1374.61 540.565 C 1375.86 534.703 1373.9 528.494 1375.45 522.631 L 1375.77 521.5 C 1376.93 517.359 1378.32 514.364 1380.76 510.804 L 1381.67 509.5 C 1384.4 505.422 1388.06 502.075 1391.5 498.593 L 1392.99 499.005 L 1393.49 500.5 L 1388.97 504.995 C 1382.05 512.537 1380.59 519.924 1381.19 530 C 1381.4 533.539 1383.38 537.953 1386.55 539.846 C 1389.55 541.631 1394.86 541.151 1398.06 540.136 C 1403.24 532.932 1403.8 512.99 1404.19 503.994 C 1406.5 507.734 1405.31 511.208 1404.98 515.5 C 1404.35 523.853 1403.99 532.191 1402.11 540.385 L 1399.08 551.127 L 1397.98 551.142 C 1379.82 551.531 1344.78 554.452 1332.15 568.5 C 1328.98 572.023 1326.66 575.75 1327.24 580.571 C 1328.46 590.775 1333.19 600.405 1335.57 610.364 C 1337.36 617.882 1337.53 625.474 1338.93 633.009 L 1339.91 641.232 C 1340.5 647.324 1341.11 656.126 1339.49 662 L 1338.99 663.886 C 1338.48 665.72 1338.81 665.097 1338.07 666.183 C 1338.86 655.221 1339.5 643.203 1336.82 632.465 L 1333.92 621 C 1331.88 613.968 1325.21 595.173 1319 591.727 C 1319.9 578.441 1320.2 559.926 1312.86 548.385 C 1315.74 547.25 1317.75 545.673 1320.03 543.635 L 1321.82 544.291 C 1332.5 548.459 1346.26 545.962 1357.5 545.767 C 1362.46 545.681 1368.3 546.507 1373.14 545.399 L 1375 544.936 L 1377.96 544.25 L 1373 544 C 1371.27 545.151 1364.77 545.679 1362.5 545 C 1359.96 544.24 1358.18 544.111 1355.5 544 C 1355.23 541.747 1355.52 542.446 1354.62 540.637 C 1353.65 538.705 1354.36 537.584 1354.75 535.495 L 1355.3 536.613 L 1356 538 C 1356.53 539.118 1356.36 539.182 1357.25 540.144 C 1361.14 544.323 1369.2 542.942 1374.31 542.734 L 1374.5 541.51 L 1363.98 541.001 z"/>
<path transform="translate(0,0)" fill="rgb(131,197,190)" d="M 1249.7 615.184 C 1254 607.373 1251.73 560.122 1251.7 548.318 C 1257.65 548.884 1272.44 548.225 1276.93 551.5 L 1277.78 559 C 1274.38 563.774 1271.97 570.059 1272.08 576 C 1272.19 581.546 1274.25 586.196 1278.32 589.959 C 1285.63 596.71 1296.42 598.491 1306.03 598.048 C 1311.78 597.783 1315.14 595.884 1319 591.727 C 1325.21 595.173 1331.88 613.968 1333.92 621 L 1336.82 632.465 C 1339.5 643.203 1338.86 655.221 1338.07 666.183 C 1335.98 671.131 1333.87 675.901 1331.06 680.5 C 1328.95 683.946 1325.75 687.867 1324.44 691.637 C 1312.14 692.988 1292.07 685.108 1280.98 679.442 C 1277.2 677.513 1273.12 675.121 1270.5 671.712 C 1264.52 663.917 1261.88 652.862 1258.99 643.583 L 1249.7 615.184 z"/>
<path transform="translate(0,0)" fill="rgb(18,62,78)" d="M 1120.82 819.897 L 1135.05 802.535 C 1141.32 793.703 1149.54 781.122 1147.51 770.027 C 1147.21 768.39 1147.88 767.501 1148.47 765.969 C 1163.17 791.283 1181.07 814.765 1202.39 834.846 C 1211.02 842.974 1221.23 850.211 1229.23 858.878 C 1225.74 866.26 1227.69 881.562 1227.46 889.93 L 1225.86 1004.18 L 1353.32 1004.2 L 1382.82 1004 L 1387.79 1004.06 L 1530.67 1006.71 L 1531.92 1001.5 C 1532.29 999.976 1532.62 998.436 1533.27 997 C 1535.47 992.193 1539.32 988.995 1544.29 987.395 L 1545.15 987.132 C 1549.37 987.779 1552 987.418 1554.5 991.355 C 1556.9 995.131 1558.02 1000.72 1559.02 1005.05 C 1562.95 1021.98 1563.86 1044.03 1559.06 1060.8 C 1557.56 1066.04 1555.79 1069.98 1551.7 1073.65 C 1548.41 1074.77 1546.21 1075.7 1542.87 1073.88 C 1537.82 1071.13 1535.65 1066.7 1534.01 1061.43 L 1533.75 1048.04 L 1454.37 1046.8 C 1445.68 1045.47 1436.47 1046.04 1427.69 1046.01 L 1378.5 1046.32 L 1317.89 1046.22 L 1231.96 1045.66 L 1208.56 1044.94 C 1211.21 1065.69 1210.34 1086.82 1209.88 1107.68 L 1231.79 1120.76 C 1249.1 1133.45 1268.83 1143.24 1284.88 1157.81 C 1298.71 1173.32 1314.4 1187.01 1330.2 1200.45 C 1344.99 1213.03 1363.39 1224.62 1375.63 1239.5 C 1381.26 1246.35 1385.47 1254.55 1387.69 1263.14 C 1391.4 1277.49 1391.09 1292.98 1391.31 1307.72 L 1390.2 1373.04 L 1385.39 1433.89 C 1383.82 1452.42 1381.77 1470.71 1378.28 1489 C 1376.66 1497.52 1375.17 1506.42 1371.95 1514.5 C 1369.44 1515.14 1367.55 1515.16 1364.99 1515.06 C 1347.87 1513.41 1330.59 1513.85 1313.58 1516.53 C 1305.26 1517.84 1296.79 1520.27 1288.37 1520.62 C 1274.48 1521.21 1259.89 1517.59 1245.93 1516.99 C 1243.87 1516.01 1242.64 1515.78 1241.55 1513.65 C 1239.75 1510.13 1239.13 1505.12 1238.27 1501.25 C 1235.73 1489.81 1233.95 1478.05 1233.18 1466.36 C 1230.79 1430.07 1237.65 1394.62 1254.61 1362.26 C 1263.05 1346.18 1274.46 1329.92 1284.53 1314.73 C 1292.7 1302.4 1302.49 1290.01 1306.86 1275.76 C 1302.3 1279.55 1298.23 1288.04 1294.86 1293.21 L 1253.81 1357.78 C 1244.09 1351.4 1232.22 1340.14 1221.08 1337.03 C 1214.88 1335.29 1205.1 1337.05 1198.5 1336.91 C 1190.04 1336.72 1181.52 1335.66 1173.13 1334.62 C 1132.07 1329.55 1089.24 1319.66 1049.82 1307.2 C 1023.45 1297.22 998.603 1288.5 974.241 1273.84 C 963.115 1267.15 952.943 1260.57 944.326 1250.71 L 954.113 1234.23 L 981.955 1169.84 L 979.731 1167.11 C 964.802 1193.24 951.738 1220.69 941.672 1249.05 L 935.557 1280.75 L 924.663 1340.78 C 916.515 1385.95 906.823 1431.63 886.286 1473.05 C 876.457 1492.87 863.583 1511.39 849.911 1528.73 C 838.322 1543.42 826.597 1557.79 811.392 1568.93 C 796.922 1579.53 781.165 1587.53 765.308 1595.75 L 704.267 1627.5 L 676.918 1642.58 C 671.779 1645.56 666.446 1649.38 660.952 1651.6 L 627.511 1628.27 C 623.312 1625.37 617.464 1622.84 615.06 1618.37 C 612.992 1616.78 613.47 1616.65 613.04 1614.22 C 611.226 1611.09 611.037 1605.93 610.477 1602.31 L 606.965 1575.06 C 607.178 1566.15 610.089 1559.76 613.511 1551.61 C 612.421 1540.74 613.113 1529.28 613.112 1518.34 L 613.119 1457.7 L 613.149 1260.37 L 612.495 1197.96 C 612.255 1190.96 612.775 1182.32 611.094 1175.54 C 610.3 1172.34 610.114 1169.06 609.827 1165.79 L 611.253 1077.09 L 611.124 1056.16 C 614.354 1056.96 617.904 1058.04 621.252 1057.75 C 624.309 1057.49 626.545 1056.53 628.401 1054.03 C 631.297 1050.13 631.38 1046.93 630.632 1042.28 L 609.032 1037.23 L 619.558 1002.23 C 638.971 1004.67 660.182 1003.74 679.756 1003.9 L 791.571 1006.36 L 793.294 986.577 C 819.288 992.352 848.259 992.826 874.805 993.848 L 988.756 994.305 C 1012.97 993.579 1037.02 992.814 1061.11 989.957 L 1068.27 972.322 C 1075.29 956.883 1081.82 941.351 1086.24 924.938 C 1088.83 919.339 1090.18 911.99 1091.88 906 L 1104.96 857.235 C 1108.06 845.332 1109.77 832.105 1118.41 822.745 L 1120.82 819.897 z"/>
<path transform="translate(0,0)" fill="rgb(14,44,62)" d="M 981.955 1169.84 L 983.723 1169.56 C 983.537 1182.92 974.663 1200.06 969.267 1212.1 C 967.279 1216.54 961.121 1226.91 962.604 1231.5 L 967.805 1233.5 C 964.987 1234.09 963.917 1233.13 961.326 1231.99 C 961.123 1229.2 960.739 1228.49 962 1226 L 962.219 1225.09 C 962.604 1223.55 963.337 1222.43 964 1221 L 965 1218.5 L 966.391 1215.39 C 967.16 1213.7 966.866 1214.49 967.234 1213.02 C 967.611 1211.51 968.367 1210.39 969 1209 L 970.5 1206 L 971 1203.5 C 969.374 1204.64 969.429 1204.26 968.786 1206.3 C 967.356 1210.84 964.52 1215.12 962.374 1219.37 L 954.844 1234.96 L 954.113 1234.23 L 981.955 1169.84 z"/>
<path transform="translate(0,0)" fill="rgb(131,197,190)" d="M 766.217 1424.6 L 766.746 1422.66 C 767.773 1418.56 767.536 1414 767.58 1409.8 C 769.518 1417.09 766.062 1427.54 768.75 1433.75 L 769 1417.5 L 769.51 1418 C 769.536 1425.27 768.622 1434 770.1 1441.06 C 770.101 1456.49 769.412 1472.77 765.913 1487.82 C 764.609 1493.43 762.73 1499.58 758.591 1503.8 L 756.235 1505.95 L 754.977 1504.01 L 755.581 1503.1 C 761.568 1494.77 761.707 1483.1 762.766 1473.09 L 766.217 1424.6 z"/>
<path transform="translate(0,0)" fill="rgb(14,44,62)" d="M 935.557 1280.75 L 935.133 1280.42 L 934.024 1280.45 L 935.5 1271 L 936 1267.5 C 936.308 1266.17 936.756 1265.15 936.893 1263.75 C 937.071 1261.94 936.885 1263.04 937.249 1261.22 L 937.5 1260 C 938.115 1256.09 939.438 1252.7 940.5 1249 C 941.044 1247.11 940.974 1245.82 942 1244 C 943.282 1241.72 942.925 1242.04 942.51 1239.5 L 941.942 1240.71 L 941.116 1242.54 C 938.218 1248.79 936.752 1255.78 935.567 1262.56 C 934.989 1265.86 934.98 1270.43 933.17 1273.23 C 935.962 1235.95 957.092 1198.56 976.031 1167.07 C 979.264 1161.7 982.552 1153.49 987 1149.29 L 987.985 1150.5 L 980.482 1165.81 L 979.731 1167.11 C 964.802 1193.24 951.738 1220.69 941.672 1249.05 L 935.557 1280.75 z"/>
<path transform="translate(0,0)" fill="rgb(169,224,218)" d="M 741.809 1430.28 C 741.831 1427.11 740.464 1425.19 741.574 1422.1 C 747.371 1439.91 751.718 1456.78 752.681 1475.63 C 752.872 1479.36 751.879 1501.14 752.628 1502.47 C 752.898 1502.95 754.303 1503.65 754.977 1504.01 L 756.235 1505.95 C 743.833 1512.28 730.943 1518.32 719.078 1525.59 C 678.486 1550.48 647.081 1583.73 615.06 1618.37 C 612.992 1616.78 613.47 1616.65 613.04 1614.22 C 626.276 1602.78 638.185 1588.12 650.729 1575.76 C 670.186 1556.58 691.904 1538.46 715.284 1524.29 C 726.062 1517.76 737.738 1512.44 748.865 1506.5 C 749.008 1480.66 747.86 1455.56 741.809 1430.28 z"/>
<path transform="translate(0,0)" fill="rgb(237,246,249)" d="M 784.985 1043.96 C 788.358 1040.58 790.456 1041.25 795.02 1041.27 L 1077.71 1043.79 L 1085.23 1044.5 L 1085.35 1046.18 L 1083.88 1047.6 C 1072.92 1049.22 1060.97 1048.71 1049.86 1048.84 L 991.311 1049.36 L 874.345 1049.79 L 808.234 1048.55 C 800.879 1048.17 792.005 1048.61 785.05 1046.1 L 784.985 1043.96 z"/>
<path transform="translate(0,0)" fill="rgb(131,197,190)" d="M 1077.71 1043.79 L 1126.86 1044.17 L 1128.22 1044.3 L 1162.27 1044.96 C 1166.8 1058.37 1170.04 1073.02 1176.54 1085.6 C 1177.19 1086.87 1177.46 1088.13 1177.72 1089.51 C 1167 1083.97 1156.07 1078.11 1144.8 1073.76 C 1132.82 1069.14 1120.33 1065.8 1108.58 1060.57 C 1103.58 1058.34 1098.71 1055.73 1094.01 1052.92 C 1090.41 1050.76 1088.23 1048.22 1083.88 1047.6 L 1085.35 1046.18 L 1085.23 1044.5 L 1077.71 1043.79 z"/>
<path transform="translate(0,0)" fill="url(#Gradient6)" d="M 766.217 1424.6 C 765.383 1363.68 770.414 1304 778.165 1243.67 C 785.275 1188.32 793.888 1131.07 816.843 1079.81 C 820.246 1072.21 824.099 1060.67 829.78 1054.81 L 832 1052.92 L 833.675 1053.5 C 833.688 1059.55 828.418 1068.11 825.867 1073.8 L 813.364 1103.87 C 803.371 1130.63 797.346 1158.62 792.319 1186.68 C 782.153 1243.42 776.008 1302.16 772.877 1359.71 L 771.152 1414.64 C 770.954 1423.1 771.58 1432.81 770.1 1441.06 C 768.622 1434 769.536 1425.27 769.51 1418 L 769 1417.5 L 768.75 1433.75 C 766.062 1427.54 769.518 1417.09 767.58 1409.8 C 767.536 1414 767.773 1418.56 766.746 1422.66 L 766.217 1424.6 z"/>
<path transform="translate(0,0)" fill="rgb(27,144,156)" d="M 1126.86 1044.17 L 1177.52 1043.95 C 1187.71 1043.95 1198.51 1043.16 1208.56 1044.94 C 1211.21 1065.69 1210.34 1086.82 1209.88 1107.68 C 1199.83 1103.08 1186.06 1096.42 1177.72 1089.51 C 1177.46 1088.13 1177.19 1086.87 1176.54 1085.6 C 1170.04 1073.02 1166.8 1058.37 1162.27 1044.96 L 1128.22 1044.3 L 1126.86 1044.17 z"/>
<path transform="translate(0,0)" fill="rgb(18,67,84)" d="M 718.538 1451.35 C 723.53 1447.82 734.23 1443.9 737.474 1438.85 C 739.248 1436.09 738.598 1431.82 741.809 1430.28 C 747.86 1455.56 749.008 1480.66 748.865 1506.5 C 737.738 1512.44 726.062 1517.76 715.284 1524.29 C 691.904 1538.46 670.186 1556.58 650.729 1575.76 C 638.185 1588.12 626.276 1602.78 613.04 1614.22 C 611.226 1611.09 611.037 1605.93 610.477 1602.31 L 606.965 1575.06 C 607.178 1566.15 610.089 1559.76 613.511 1551.61 C 628.789 1518.99 654.53 1491.67 684.14 1471.55 C 694.651 1463.56 706.597 1456.95 718.538 1451.35 z"/>
<path transform="translate(0,0)" fill="rgb(16,56,75)" d="M 718.538 1451.35 C 717.677 1452.86 717.725 1453.2 716.15 1454.08 L 706.061 1459.74 L 706 1461 C 707.886 1460.64 709.307 1459.88 711 1459 L 713.49 1459.5 C 710.09 1461 690.002 1472.13 688.703 1471.78 C 687.16 1471.37 685.717 1471.5 684.14 1471.55 C 694.651 1463.56 706.597 1456.95 718.538 1451.35 z"/>
<path transform="translate(0,0)" fill="rgb(0,109,119)" d="M 630.632 1042.28 C 636.765 1038.51 654.12 1040.4 661.573 1040.52 L 741.924 1042.71 C 755.906 1043.14 770.073 1042.79 783.992 1043.93 L 784.985 1043.96 L 785.05 1046.1 C 781.044 1045.74 778.802 1046.97 775.691 1049.67 C 767.607 1056.68 761.103 1066.21 755.131 1075 C 738.411 1099.6 726.024 1126.79 716.758 1155 C 712.446 1168.13 708.393 1181.83 707.724 1195.7 C 706.208 1227.16 712.299 1258.4 715.947 1289.5 C 718.976 1315.31 720.574 1340.83 726.11 1366.34 L 734.662 1400.03 C 736.872 1407.25 740.279 1414.71 741.574 1422.1 C 740.464 1425.19 741.831 1427.11 741.809 1430.28 C 738.598 1431.82 739.248 1436.09 737.474 1438.85 C 734.23 1443.9 723.53 1447.82 718.538 1451.35 C 706.597 1456.95 694.651 1463.56 684.14 1471.55 C 654.53 1491.67 628.789 1518.99 613.511 1551.61 C 612.421 1540.74 613.113 1529.28 613.112 1518.34 L 613.119 1457.7 L 613.149 1260.37 L 612.495 1197.96 C 612.255 1190.96 612.775 1182.32 611.094 1175.54 C 610.3 1172.34 610.114 1169.06 609.827 1165.79 L 611.253 1077.09 L 611.124 1056.16 C 614.354 1056.96 617.904 1058.04 621.252 1057.75 C 624.309 1057.49 626.545 1056.53 628.401 1054.03 C 631.297 1050.13 631.38 1046.93 630.632 1042.28 z"/>
<path transform="translate(0,0)" fill="rgb(16,56,75)" d="M 1120.82 819.897 L 1135.05 802.535 C 1141.32 793.703 1149.54 781.122 1147.51 770.027 C 1147.21 768.39 1147.88 767.501 1148.47 765.969 C 1163.17 791.283 1181.07 814.765 1202.39 834.846 C 1211.02 842.974 1221.23 850.211 1229.23 858.878 C 1225.74 866.26 1227.69 881.562 1227.46 889.93 L 1225.86 1004.18 L 1353.32 1004.2 L 1382.82 1004 L 1387.79 1004.06 L 1530.67 1006.71 L 1531.92 1001.5 C 1532.29 999.976 1532.62 998.436 1533.27 997 C 1535.47 992.193 1539.32 988.995 1544.29 987.395 L 1545.15 987.132 C 1549.37 987.779 1552 987.418 1554.5 991.355 C 1556.9 995.131 1558.02 1000.72 1559.02 1005.05 C 1562.95 1021.98 1563.86 1044.03 1559.06 1060.8 C 1557.56 1066.04 1555.79 1069.98 1551.7 1073.65 C 1548.41 1074.77 1546.21 1075.7 1542.87 1073.88 C 1537.82 1071.13 1535.65 1066.7 1534.01 1061.43 L 1533.75 1048.04 L 1454.37 1046.8 C 1445.68 1045.47 1436.47 1046.04 1427.69 1046.01 L 1378.5 1046.32 L 1317.89 1046.22 L 1231.96 1045.66 L 1208.56 1044.94 C 1198.51 1043.16 1187.71 1043.95 1177.52 1043.95 L 1126.86 1044.17 L 1077.71 1043.79 L 795.02 1041.27 C 790.456 1041.25 788.358 1040.58 784.985 1043.96 L 783.992 1043.93 C 770.073 1042.79 755.906 1043.14 741.924 1042.71 L 661.573 1040.52 C 654.12 1040.4 636.765 1038.51 630.632 1042.28 L 609.032 1037.23 L 619.558 1002.23 C 638.971 1004.67 660.182 1003.74 679.756 1003.9 L 791.571 1006.36 L 793.294 986.577 C 819.288 992.352 848.259 992.826 874.805 993.848 L 988.756 994.305 C 1012.97 993.579 1037.02 992.814 1061.11 989.957 L 1068.27 972.322 C 1075.29 956.883 1081.82 941.351 1086.24 924.938 C 1088.83 919.339 1090.18 911.99 1091.88 906 L 1104.96 857.235 C 1108.06 845.332 1109.77 832.105 1118.41 822.745 L 1120.82 819.897 z"/>
<path transform="translate(0,0)" fill="rgb(0,109,119)" d="M 1120.82 819.897 L 1135.05 802.535 C 1141.32 793.703 1149.54 781.122 1147.51 770.027 C 1147.21 768.39 1147.88 767.501 1148.47 765.969 C 1163.17 791.283 1181.07 814.765 1202.39 834.846 C 1211.02 842.974 1221.23 850.211 1229.23 858.878 C 1225.74 866.26 1227.69 881.562 1227.46 889.93 L 1225.86 1004.18 L 1353.32 1004.2 C 1343.99 1005.34 1333.84 1004.71 1324.42 1004.75 L 1273.4 1004.9 L 1202.77 1004.92 C 1188.76 1004.91 1174.28 1005.65 1160.36 1003.99 L 1058.98 1003.2 L 1061.11 989.957 L 1068.27 972.322 C 1075.29 956.883 1081.82 941.351 1086.24 924.938 C 1088.83 919.339 1090.18 911.99 1091.88 906 L 1104.96 857.235 C 1108.06 845.332 1109.77 832.105 1118.41 822.745 L 1120.82 819.897 z"/>
<path transform="translate(0,0)" fill="rgb(131,197,190)" d="M 1120.82 819.897 C 1125.26 833.631 1126.87 848.584 1129.77 862.763 L 1147.08 944.869 L 1155.74 984.856 C 1157.11 990.761 1159.5 997.034 1160.01 1003.04 L 1160.36 1003.99 L 1058.98 1003.2 L 1061.11 989.957 L 1068.27 972.322 C 1075.29 956.883 1081.82 941.351 1086.24 924.938 C 1088.83 919.339 1090.18 911.99 1091.88 906 L 1104.96 857.235 C 1108.06 845.332 1109.77 832.105 1118.41 822.745 L 1120.82 819.897 z"/>
<path transform="translate(0,0)" fill="rgb(27,144,156)" d="M 1086.24 924.938 C 1088.83 919.339 1090.18 911.99 1091.88 906 L 1104.96 857.235 C 1108.06 845.332 1109.77 832.105 1118.41 822.745 C 1117.16 834.336 1113.91 845.535 1112.83 857.372 C 1108.4 905.818 1106.98 954.882 1099.58 1002.99 L 1160.01 1003.04 L 1160.36 1003.99 L 1058.98 1003.2 L 1061.11 989.957 L 1068.27 972.322 C 1075.29 956.883 1081.82 941.351 1086.24 924.938 z"/>
</svg>